FrauncesItalic_OpticalMax.ufo
<glyph name="five" format="2">
  <advance width="470"/>
  <unicode hex="0035"/>
  <outline>
    <contour>
      <point x="105" y="173"/>
      <point x="85" y="134"/>
      <point x="85" y="93" type="curve" smooth="yes"/>
      <point x="85" y="35"/>
      <point x="136" y="-10"/>
      <point x="222" y="-10" type="curve" smooth="yes"/>
      <point x="371" y="-10"/>
      <point x="502" y="117"/>
      <point x="502" y="250" type="curve" smooth="yes"/>
      <point x="502" y="335"/>
      <point x="447" y="385"/>
      <point x="356" y="385" type="curve" smooth="yes"/>
      <point x="292" y="385"/>
      <point x="218" y="350"/>
      <point x="159" y="286" type="curve"/>
      <point x="170" y="281" type="line"/>
      <point x="253" y="583" type="line"/>
      <point x="243" y="576" type="line"/>
      <point x="283" y="539"/>
      <point x="338" y="518"/>
      <point x="403" y="514" type="curve" smooth="yes"/>
      <point x="499" y="508"/>
      <point x="571" y="557"/>
      <point x="592" y="643" type="curve" smooth="yes"/>
      <point x="594" y="648"/>
      <point x="592" y="651"/>
      <point x="589" y="651" type="curve" smooth="yes"/>
      <point x="586" y="651"/>
      <point x="584" y="649"/>
      <point x="582" y="645" type="curve" smooth="yes"/>
      <point x="564" y="608"/>
      <point x="522" y="582"/>
      <point x="461" y="582" type="curve" smooth="yes"/>
      <point x="355" y="582"/>
      <point x="290" y="650"/>
      <point x="263" y="650" type="curve" smooth="yes"/>
      <point x="250" y="650"/>
      <point x="243" y="642"/>
      <point x="239" y="629" type="curve" smooth="yes"/>
      <point x="140" y="263" type="line" smooth="yes"/>
      <point x="139" y="258"/>
      <point x="139" y="252"/>
      <point x="144" y="252" type="curve" smooth="yes"/>
      <point x="148" y="252"/>
      <point x="150" y="253"/>
      <point x="155" y="258" type="curve" smooth="yes"/>
      <point x="232" y="332"/>
      <point x="288" y="358"/>
      <point x="338" y="358" type="curve" smooth="yes"/>
      <point x="391" y="358"/>
      <point x="420" y="324"/>
      <point x="420" y="251" type="curve" smooth="yes"/>
      <point x="420" y="122"/>
      <point x="331" y="11"/>
      <point x="233" y="11" type="curve" smooth="yes"/>
      <point x="178" y="11"/>
      <point x="161" y="40"/>
      <point x="173" y="95" type="curve" smooth="yes"/>
      <point x="180" y="126" type="line" smooth="yes"/>
      <point x="186" y="153"/>
      <point x="175" y="173"/>
      <point x="146" y="173" type="curve" smooth="yes"/>
    </contour>
  </outline>
</glyph>
<glyph name="eight" format="2">
  <advance width="505"/>
  <unicode hex="0038"/>
  <outline>
    <contour>
      <point x="251" y="-10" type="curve" smooth="yes"/>
      <point x="387" y="-10"/>
      <point x="492" y="90"/>
      <point x="492" y="188" type="curve" smooth="yes"/>
      <point x="492" y="242"/>
      <point x="460" y="295"/>
      <point x="381" y="331" type="curve" smooth="yes"/>
      <point x="304" y="366"/>
      <point x="270" y="407"/>
      <point x="270" y="461" type="curve" smooth="yes"/>
      <point x="270" y="554"/>
      <point x="347" y="631"/>
      <point x="431" y="631" type="curve" smooth="yes"/>
      <point x="494" y="631"/>
      <point x="523" y="593"/>
      <point x="523" y="542" type="curve" smooth="yes"/>
      <point x="523" y="464"/>
      <point x="461" y="361"/>
      <point x="376" y="324" type="curve"/>
      <point x="381" y="302" type="line"/>
      <point x="500" y="328"/>
      <point x="593" y="434"/>
      <point x="593" y="530" type="curve" smooth="yes"/>
      <point x="593" y="604"/>
      <point x="534" y="650"/>
      <point x="440" y="650" type="curve" smooth="yes"/>
      <point x="309" y="650"/>
      <point x="191" y="553"/>
      <point x="191" y="437" type="curve" smooth="yes"/>
      <point x="191" y="374"/>
      <point x="229" y="320"/>
      <point x="314" y="282" type="curve" smooth="yes"/>
      <point x="387" y="249"/>
      <point x="412" y="205"/>
      <point x="412" y="161" type="curve" smooth="yes"/>
      <point x="412" y="82"/>
      <point x="348" y="9"/>
      <point x="256" y="9" type="curve" smooth="yes"/>
      <point x="202" y="9"/>
      <point x="170" y="35"/>
      <point x="167" y="90" type="curve" smooth="yes"/>
      <point x="163" y="170"/>
      <point x="226" y="261"/>
      <point x="315" y="302" type="curve"/>
      <point x="308" y="310" type="line"/>
      <point x="185" y="289"/>
      <point x="94" y="189"/>
      <point x="98" y="103" type="curve" smooth="yes"/>
      <point x="101" y="33"/>
      <point x="160" y="-10"/>
    </contour>
  </outline>
</glyph>
<glyph name="less" format="2">
  <advance width="515"/>
  <unicode hex="003C"/>
  <outline>
    <contour>
      <point x="122" y="304"/>
      <point x="124" y="301"/>
      <point x="130" y="297" type="curve"/>
      <point x="296" y="215"/>
      <point x="370" y="150"/>
      <point x="436" y="111" type="curve" smooth="yes"/>
      <point x="451" y="103"/>
      <point x="475" y="106"/>
      <point x="486" y="124" type="curve" smooth="yes"/>
      <point x="497" y="141"/>
      <point x="490" y="158"/>
      <point x="474" y="167" type="curve" smooth="yes"/>
      <point x="412" y="202"/>
      <point x="330" y="230"/>
      <point x="158" y="312" type="curve"/>
      <point x="155" y="304" type="line"/>
      <point x="367" y="385"/>
      <point x="469" y="416"/>
      <point x="550" y="452" type="curve" smooth="yes"/>
      <point x="575" y="463"/>
      <point x="580" y="479"/>
      <point x="578" y="493" type="curve" smooth="yes"/>
      <point x="575" y="510"/>
      <point x="559" y="516"/>
      <point x="540" y="508" type="curve" smooth="yes"/>
      <point x="454" y="469"/>
      <point x="342" y="402"/>
      <point x="136" y="320" type="curve"/>
      <point x="130" y="317"/>
      <point x="124" y="315"/>
      <point x="123" y="309" type="curve" smooth="yes"/>
    </contour>
  </outline>
</glyph>
<glyph name="T" format="2">
  <advance width="513"/>
  <unicode hex="0054"/>
  <outline>
    <contour>
      <point x="301" y="714" type="curve" smooth="yes"/>
      <point x="207" y="714.0"/>
      <point x="162.0" y="670"/>
      <point x="162" y="613" type="curve" smooth="yes"/>
      <point x="162.0" y="575.0"/>
      <point x="183" y="554.0"/>
      <point x="213" y="554" type="curve" smooth="yes"/>
      <point x="240" y="554"/>
      <point x="258" y="575"/>
      <point x="258" y="596" type="curve" smooth="yes"/>
      <point x="258.0" y="622"/>
      <point x="218.0" y="631"/>
      <point x="218" y="658" type="curve" smooth="yes"/>
      <point x="218.0" y="683"/>
      <point x="239" y="699.0"/>
      <point x="297" y="699" type="curve" smooth="yes"/>
      <point x="382" y="699.0"/>
      <point x="518.0" y="645.0"/>
      <point x="606" y="645" type="curve" smooth="yes"/>
      <point x="671.0" y="645.0"/>
      <point x="707.0" y="673"/>
      <point x="707" y="709" type="curve" smooth="yes"/>
      <point x="707.0" y="732"/>
      <point x="694" y="742.0"/>
      <point x="674" y="742" type="curve" smooth="yes"/>
      <point x="651" y="742.0"/>
      <point x="635" y="728"/>
      <point x="629" y="704" type="curve" smooth="yes"/>
      <point x="622" y="676"/>
      <point x="610" y="666.0"/>
      <point x="584" y="666" type="curve" smooth="yes"/>
      <point x="522" y="666.0"/>
      <point x="386" y="714.0"/>
    </contour>
    <contour>
      <point x="414" y="688" type="line"/>
      <point x="364" y="493"/>
      <point x="310.3464888648202" y="296.11866404927656"/>
      <point x="240" y="69" type="curve" smooth="yes"/>
      <point x="232" y="44"/>
      <point x="219" y="30"/>
      <point x="196" y="25" type="curve" smooth="yes"/>
      <point x="149" y="15" type="line" smooth="yes"/>
      <point x="141" y="13"/>
      <point x="137" y="12"/>
      <point x="136" y="8" type="curve" smooth="yes"/>
      <point x="134" y="2"/>
      <point x="137.0" y="0"/>
      <point x="146" y="0" type="curve" smooth="yes"/>
      <point x="374" y="0" type="line" smooth="yes"/>
      <point x="385" y="0"/>
      <point x="390" y="2"/>
      <point x="392" y="8" type="curve" smooth="yes"/>
      <point x="394" y="13"/>
      <point x="390" y="14"/>
      <point x="382" y="16" type="curve" smooth="yes"/>
      <point x="346" y="25" type="line" smooth="yes"/>
      <point x="327" y="30"/>
      <point x="320" y="43"/>
      <point x="326" y="69" type="curve" smooth="yes"/>
      <point x="381.367365023392" y="312.6164061029248"/>
      <point x="428" y="485"/>
      <point x="481" y="671" type="curve"/>
    </contour>
  </outline>
</glyph>
<glyph name="Z" format="2">
  <advance width="533"/>
  <unicode hex="005A"/>
  <outline>
    <contour>
      <point x="407" y="0" type="line" smooth="yes"/>
      <point x="424.8767123287671" y="0"/>
      <point x="440.046875" y="-10.0"/>
      <point x="452" y="-10" type="curve" smooth="yes"/>
      <point x="501.2105263157895" y="-10.0"/>
      <point x="554.0" y="77.44134078212291"/>
      <point x="554" y="172" type="curve" smooth="yes"/>
      <point x="554" y="179"/>
      <point x="551" y="183"/>
      <point x="547" y="183" type="curve" smooth="yes"/>
      <point x="543.3636363636364" y="183.0"/>
      <point x="541" y="180"/>
      <point x="539" y="176" type="curve" smooth="yes"/>
      <point x="528" y="149" type="line" smooth="yes"/>
      <point x="492" y="62"/>
      <point x="431.950276243094" y="21"/>
      <point x="345" y="21" type="curve" smooth="yes"/>
      <point x="113" y="21" type="line"/>
      <point x="133" y="9" type="line"/>
      <point x="305.55687465941674" y="223.2085340599656"/>
      <point x="505" y="462"/>
      <point x="680" y="672" type="curve" smooth="yes"/>
      <point x="686" y="679"/>
      <point x="689" y="684"/>
      <point x="689" y="691" type="curve" smooth="yes"/>
      <point x="689" y="697"/>
      <point x="684" y="700.0"/>
      <point x="677" y="700" type="curve" smooth="yes"/>
      <point x="331" y="700" type="line" smooth="yes"/>
      <point x="310" y="700"/>
      <point x="301" y="716"/>
      <point x="287" y="716" type="curve" smooth="yes"/>
      <point x="281" y="716"/>
      <point x="276" y="713"/>
      <point x="271" y="704" type="curve" smooth="yes"/>
      <point x="199" y="558" type="line" smooth="yes"/>
      <point x="195.9328274959156" y="551.7804557556066"/>
      <point x="194.0" y="547.5"/>
      <point x="194" y="544" type="curve" smooth="yes"/>
      <point x="194.0" y="539.625"/>
      <point x="195.71428571428572" y="537.0"/>
      <point x="200" y="537" type="curve" smooth="yes"/>
      <point x="204.66666666666669" y="537.0"/>
      <point x="208" y="539"/>
      <point x="214" y="546" type="curve" smooth="yes"/>
      <point x="254" y="594" type="line" smooth="yes"/>
      <point x="309.0" y="660"/>
      <point x="345.0" y="679.0"/>
      <point x="404" y="679" type="curve" smooth="yes"/>
      <point x="612" y="679" type="line"/>
      <point x="601" y="690" type="line"/>
      <point x="425" y="473"/>
      <point x="226" y="235"/>
      <point x="41" y="23" type="curve" smooth="yes"/>
      <point x="33" y="14"/>
      <point x="31" y="12"/>
      <point x="31" y="8" type="curve" smooth="yes"/>
      <point x="31" y="3"/>
      <point x="35" y="0"/>
      <point x="45" y="0" type="curve" smooth="yes"/>
    </contour>
  </outline>
</glyph>
<glyph name="k" format="2">
  <advance width="438"/>
  <unicode hex="006B"/>
  <outline>
    <contour>
      <point x="193" y="263" type="line"/>
      <point x="245" y="364"/>
      <point x="330.62711864406776" y="440.0"/>
      <point x="425" y="440" type="curve" smooth="yes"/>
      <point x="471" y="440"/>
      <point x="499.0" y="414.7654320987654"/>
      <point x="499" y="367" type="curve" smooth="yes"/>
      <point x="499.0" y="297.2929292929293"/>
      <point x="422.4423682517009" y="239.83804077898668"/>
      <point x="151" y="161" type="curve"/>
      <point x="149" y="176" type="line"/>
      <point x="373" y="246"/>
      <point x="429.0" y="295"/>
      <point x="429.0" y="359" type="curve" smooth="yes"/>
      <point x="429" y="392"/>
      <point x="410" y="407"/>
      <point x="377" y="407" type="curve" smooth="yes"/>
      <point x="311.0" y="407"/>
      <point x="209" y="309"/>
      <point x="172" y="181" type="curve" smooth="yes"/>
      <point x="158" y="131"/>
      <point x="142.0" y="99.60714285714286"/>
      <point x="142" y="75" type="curve" smooth="yes"/>
      <point x="142.0" y="51.61538461538461"/>
      <point x="145.0" y="42.0"/>
      <point x="145" y="27" type="curve" smooth="yes"/>
      <point x="145.0" y="4.0"/>
      <point x="116.2962962962963" y="-10.0"/>
      <point x="83" y="-10" type="curve" smooth="yes"/>
      <point x="69.37037037037037" y="-10.0"/>
      <point x="60.0" y="-0.06451612903225623"/>
      <point x="60" y="18" type="curve" smooth="yes"/>
      <point x="60.0" y="33.833333333333336"/>
      <point x="64.81916440576153" y="50.78255953228745"/>
      <point x="73" y="75" type="curve" smooth="yes"/>
      <point x="224" y="522" type="line" smooth="yes"/>
      <point x="264" y="640"/>
      <point x="352" y="716.0"/>
      <point x="502" y="716.0" type="curve" smooth="yes"/>
      <point x="566" y="716"/>
      <point x="589.0" y="696"/>
      <point x="589" y="676" type="curve" smooth="yes"/>
      <point x="589.0" y="656"/>
      <point x="574.0" y="644.0"/>
      <point x="545" y="644" type="curve" smooth="yes"/>
      <point x="502.0" y="644.0"/>
      <point x="457.0" y="686.0"/>
      <point x="400" y="686" type="curve" smooth="yes"/>
      <point x="346" y="686"/>
      <point x="304.780435184264" y="619.1332494521946"/>
      <point x="281" y="538" type="curve" smooth="yes"/>
      <point x="230.31398920510765" y="366.1083112173216"/>
      <point x="209" y="306"/>
      <point x="199" y="263" type="curve"/>
    </contour>
    <contour>
      <point x="238" y="197" type="curve"/>
      <point x="286" y="215" type="line"/>
      <point x="331.0" y="61.0"/>
      <point x="354.0" y="37"/>
      <point x="380" y="37" type="curve" smooth="yes"/>
      <point x="417" y="37"/>
      <point x="419.46666666666664" y="87.0"/>
      <point x="428" y="87" type="curve" smooth="yes"/>
      <point x="432.0" y="87.0"/>
      <point x="434.0" y="83.66666666666667"/>
      <point x="434" y="77" type="curve" smooth="yes"/>
      <point x="434.0" y="23.0"/>
      <point x="390" y="-15"/>
      <point x="340" y="-15" type="curve" smooth="yes"/>
      <point x="295.86538461538464" y="-15.0"/>
      <point x="268" y="20"/>
    </contour>
  </outline>
</glyph>
<glyph name="p" format="2">
  <advance width="411"/>
  <unicode hex="0070"/>
  <outline>
    <contour>
      <point x="269" y="493" type="line" smooth="yes"/>
      <point x="270" y="497"/>
      <point x="271" y="501"/>
      <point x="271" y="505" type="curve" smooth="yes"/>
      <point x="271" y="518"/>
      <point x="245" y="540"/>
      <point x="235" y="540" type="curve" smooth="yes"/>
      <point x="228" y="540"/>
      <point x="223" y="536"/>
      <point x="220" y="527" type="curve" smooth="yes"/>
      <point x="5" y="-194" type="line" smooth="yes"/>
      <point x="-2" y="-216"/>
      <point x="-22" y="-226"/>
      <point x="-51" y="-229" type="curve" smooth="yes"/>
      <point x="-57" y="-230"/>
      <point x="-59" y="-232"/>
      <point x="-59" y="-233" type="curve" smooth="yes"/>
      <point x="-59" y="-236"/>
      <point x="-56" y="-238"/>
      <point x="-51" y="-238" type="curve" smooth="yes"/>
      <point x="126" y="-228" type="line" smooth="yes"/>
      <point x="131" y="-228"/>
      <point x="134" y="-226"/>
      <point x="134" y="-223" type="curve" smooth="yes"/>
      <point x="134" y="-221"/>
      <point x="133" y="-218"/>
      <point x="128" y="-218" type="curve" smooth="yes"/>
      <point x="86" y="-215"/>
      <point x="74" y="-207"/>
      <point x="74" y="-192" type="curve" smooth="yes"/>
      <point x="74" y="-186"/>
      <point x="76" y="-177"/>
      <point x="78" y="-170" type="curve" smooth="yes"/>
    </contour>
    <contour>
      <point x="89" y="291" type="curve" smooth="yes"/>
      <point x="92" y="291"/>
      <point x="94" y="293"/>
      <point x="96" y="296" type="curve" smooth="yes"/>
      <point x="177" y="385"/>
      <point x="241" y="417"/>
      <point x="293" y="417" type="curve" smooth="yes"/>
      <point x="349" y="417"/>
      <point x="378" y="384"/>
      <point x="378" y="309" type="curve" smooth="yes"/>
      <point x="378" y="119"/>
      <point x="265" y="7"/>
      <point x="183" y="7" type="curve" smooth="yes"/>
      <point x="138" y="7"/>
      <point x="115" y="20"/>
      <point x="99" y="64" type="curve"/>
      <point x="89" y="60" type="line"/>
      <point x="104" y="10"/>
      <point x="136" y="-10"/>
      <point x="182" y="-10" type="curve" smooth="yes"/>
      <point x="293" y="-10"/>
      <point x="448" y="118"/>
      <point x="448" y="311" type="curve" smooth="yes"/>
      <point x="448" y="399"/>
      <point x="400" y="440"/>
      <point x="328" y="440" type="curve" smooth="yes"/>
      <point x="240" y="440"/>
      <point x="167" y="395"/>
      <point x="87" y="305" type="curve" smooth="yes"/>
      <point x="85" y="303"/>
      <point x="84" y="300"/>
      <point x="84" y="297" type="curve" smooth="yes"/>
      <point x="84" y="293"/>
      <point x="87" y="291"/>
    </contour>
  </outline>
</glyph>
<glyph name="cent" format="2">
  <advance width="360"/>
  <unicode hex="00A2"/>
  <outline>
    <contour>
      <point x="331" y="492" type="curve" smooth="yes"/>
      <point x="359" y="492"/>
      <point x="374" y="472"/>
      <point x="374" y="449" type="curve" smooth="yes"/>
      <point x="374" y="433"/>
      <point x="366" y="414"/>
      <point x="366" y="400" type="curve" smooth="yes"/>
      <point x="366" y="379"/>
      <point x="378" y="366"/>
      <point x="395" y="366" type="curve" smooth="yes"/>
      <point x="422" y="366"/>
      <point x="444" y="390"/>
      <point x="444" y="431" type="curve" smooth="yes"/>
      <point x="444" y="471"/>
      <point x="413" y="514"/>
      <point x="352" y="514" type="curve" smooth="yes"/>
      <point x="225" y="514"/>
      <point x="113" y="372"/>
      <point x="113" y="242" type="curve" smooth="yes"/>
      <point x="113" y="165"/>
      <point x="151" y="121"/>
      <point x="218" y="121" type="curve" smooth="yes"/>
      <point x="308" y="121"/>
      <point x="375" y="188"/>
      <point x="388" y="236" type="curve" smooth="yes"/>
      <point x="390" y="243"/>
      <point x="387" y="248"/>
      <point x="382" y="248" type="curve" smooth="yes"/>
      <point x="378" y="248"/>
      <point x="375" y="243"/>
      <point x="372" y="238" type="curve" smooth="yes"/>
      <point x="349" y="191"/>
      <point x="307" y="167"/>
      <point x="262" y="167" type="curve" smooth="yes"/>
      <point x="212" y="167"/>
      <point x="179" y="200"/>
      <point x="179" y="279" type="curve" smooth="yes"/>
      <point x="179" y="394"/>
      <point x="254" y="492"/>
    </contour>
    <contour>
      <point x="156" y="-6" type="curve" smooth="yes"/>
      <point x="147" y="-37"/>
      <point x="162" y="-50"/>
      <point x="180" y="-50" type="curve" smooth="yes"/>
      <point x="199" y="-50"/>
      <point x="215" y="-38"/>
      <point x="223" y="-13" type="curve" smooth="yes"/>
      <point x="234" y="27"/>
      <point x="224" y="71"/>
      <point x="290" y="317" type="curve" smooth="yes"/>
      <point x="357" y="559"/>
      <point x="389" y="601"/>
      <point x="401" y="643" type="curve" smooth="yes"/>
      <point x="409" y="671"/>
      <point x="393" y="684"/>
      <point x="378" y="684" type="curve" smooth="yes"/>
      <point x="360" y="684"/>
      <point x="343" y="672"/>
      <point x="336" y="645" type="curve" smooth="yes"/>
      <point x="325" y="608"/>
      <point x="341" y="565"/>
      <point x="273" y="317" type="curve" smooth="yes"/>
      <point x="209" y="80"/>
      <point x="166" y="34"/>
    </contour>
  </outline>
</glyph>
<glyph name="sterling" format="2">
  <advance width="485"/>
  <unicode hex="00A3"/>
  <outline>
    <contour>
      <point x="109" y="110" type="curve" smooth="yes"/>
      <point x="202" y="110"/>
      <point x="241" y="-10"/>
      <point x="358" y="-10" type="curve" smooth="yes"/>
      <point x="428" y="-10"/>
      <point x="483" y="36"/>
      <point x="504" y="119" type="curve" smooth="yes"/>
      <point x="505" y="124"/>
      <point x="504" y="128"/>
      <point x="499" y="128" type="curve" smooth="yes"/>
      <point x="496" y="128"/>
      <point x="492" y="125"/>
      <point x="491" y="122" type="curve" smooth="yes"/>
      <point x="468" y="76"/>
      <point x="432" y="58"/>
      <point x="385" y="58" type="curve" smooth="yes"/>
      <point x="305" y="58"/>
      <point x="237" y="135"/>
      <point x="136" y="135" type="curve" smooth="yes"/>
      <point x="74" y="135"/>
      <point x="23" y="100"/>
      <point x="23" y="51" type="curve" smooth="yes"/>
      <point x="23" y="15"/>
      <point x="53" y="-10"/>
      <point x="96" y="-10" type="curve" smooth="yes"/>
      <point x="147" y="-10"/>
      <point x="219" y="28"/>
      <point x="242" y="117" type="curve" smooth="yes"/>
      <point x="270" y="223"/>
      <point x="280" y="349"/>
      <point x="314" y="484" type="curve" smooth="yes"/>
      <point x="341" y="594"/>
      <point x="386" y="630"/>
      <point x="440" y="630" type="curve" smooth="yes"/>
      <point x="483" y="630"/>
      <point x="503" y="603"/>
      <point x="488" y="551" type="curve" smooth="yes"/>
      <point x="482" y="530" type="line" smooth="yes"/>
      <point x="471" y="493"/>
      <point x="486" y="471"/>
      <point x="515" y="471" type="curve" smooth="yes"/>
      <point x="543" y="471.0"/>
      <point x="565" y="493"/>
      <point x="575" y="531" type="curve" smooth="yes"/>
      <point x="591" y="598"/>
      <point x="541" y="650.0"/>
      <point x="455" y="650" type="curve" smooth="yes"/>
      <point x="352" y="650.0"/>
      <point x="260" y="576"/>
      <point x="229" y="453" type="curve" smooth="yes"/>
      <point x="194" y="317"/>
      <point x="223" y="212"/>
      <point x="197" y="113" type="curve" smooth="yes"/>
      <point x="176" y="36"/>
      <point x="136" y="10"/>
      <point x="99" y="10" type="curve" smooth="yes"/>
      <point x="70" y="10"/>
      <point x="46" y="27"/>
      <point x="46" y="53" type="curve" smooth="yes"/>
      <point x="46" y="86"/>
      <point x="78" y="110"/>
    </contour>
    <contour>
      <point x="152" y="335" type="curve" smooth="yes"/>
      <point x="136" y="335"/>
      <point x="126" y="322"/>
      <point x="123" y="309" type="curve" smooth="yes"/>
      <point x="121" y="296"/>
      <point x="126" y="283"/>
      <point x="142" y="283" type="curve" smooth="yes"/>
      <point x="160" y="283"/>
      <point x="197" y="301"/>
      <point x="293" y="301" type="curve" smooth="yes"/>
      <point x="389" y="301"/>
      <point x="419" y="283"/>
      <point x="436" y="283" type="curve" smooth="yes"/>
      <point x="452" y="283"/>
      <point x="461" y="296"/>
      <point x="464" y="309" type="curve" smooth="yes"/>
      <point x="466" y="322"/>
      <point x="462" y="335"/>
      <point x="445" y="335" type="curve" smooth="yes"/>
      <point x="429" y="335"/>
      <point x="392" y="317"/>
      <point x="296" y="317" type="curve" smooth="yes"/>
      <point x="200" y="317"/>
      <point x="169" y="335"/>
    </contour>
  </outline>
</glyph>
<glyph name="section" format="2">
  <advance width="510"/>
  <unicode hex="00A7"/>
  <outline>
    <contour>
      <point x="389" y="39" type="line"/>
      <point x="467" y="68"/>
      <point x="520" y="130"/>
      <point x="520" y="199" type="curve" smooth="yes"/>
      <point x="520" y="269"/>
      <point x="486" y="319"/>
      <point x="405" y="381" type="curve" smooth="yes"/>
      <point x="321" y="446"/>
      <point x="289" y="482"/>
      <point x="289" y="541" type="curve" smooth="yes"/>
      <point x="289" y="624"/>
      <point x="354" y="696"/>
      <point x="456" y="696" type="curve" smooth="yes"/>
      <point x="512" y="696"/>
      <point x="554" y="669"/>
      <point x="564" y="610" type="curve" smooth="yes"/>
      <point x="574" y="547" type="line" smooth="yes"/>
      <point x="577" y="526"/>
      <point x="588" y="517"/>
      <point x="604" y="517" type="curve" smooth="yes"/>
      <point x="629" y="517"/>
      <point x="646" y="543"/>
      <point x="646" y="572" type="curve" smooth="yes"/>
      <point x="646" y="641"/>
      <point x="581" y="713"/>
      <point x="462" y="713" type="curve" smooth="yes"/>
      <point x="317" y="713"/>
      <point x="227" y="597"/>
      <point x="227" y="494" type="curve" smooth="yes"/>
      <point x="227" y="433"/>
      <point x="269" y="378"/>
      <point x="357" y="309" type="curve" smooth="yes"/>
      <point x="423" y="257"/>
      <point x="457" y="219"/>
      <point x="457" y="171" type="curve" smooth="yes"/>
      <point x="457" y="121"/>
      <point x="429" y="74"/>
      <point x="378" y="53" type="curve"/>
    </contour>
    <contour>
      <point x="268" y="427" type="line"/>
      <point x="192" y="396"/>
      <point x="142" y="336"/>
      <point x="142" y="269" type="curve" smooth="yes"/>
      <point x="142" y="199"/>
      <point x="180" y="148"/>
      <point x="257" y="87" type="curve" smooth="yes"/>
      <point x="345" y="18"/>
      <point x="373" y="-14"/>
      <point x="373" y="-73" type="curve" smooth="yes"/>
      <point x="373" y="-156"/>
      <point x="308" y="-228"/>
      <point x="206" y="-228" type="curve" smooth="yes"/>
      <point x="150" y="-228"/>
      <point x="108" y="-201"/>
      <point x="98" y="-142" type="curve" smooth="yes"/>
      <point x="88" y="-79" type="line" smooth="yes"/>
      <point x="85" y="-58"/>
      <point x="74" y="-49"/>
      <point x="58" y="-49" type="curve" smooth="yes"/>
      <point x="33" y="-49"/>
      <point x="16" y="-75"/>
      <point x="16" y="-104" type="curve" smooth="yes"/>
      <point x="16" y="-173"/>
      <point x="81" y="-245"/>
      <point x="200" y="-245" type="curve" smooth="yes"/>
      <point x="345" y="-245"/>
      <point x="435" y="-129"/>
      <point x="435" y="-26" type="curve" smooth="yes"/>
      <point x="435" y="35"/>
      <point x="398" y="86"/>
      <point x="305" y="159" type="curve" smooth="yes"/>
      <point x="241" y="209"/>
      <point x="205" y="250"/>
      <point x="205" y="298" type="curve" smooth="yes"/>
      <point x="205" y="349"/>
      <point x="231" y="389"/>
      <point x="278" y="412" type="curve"/>
    </contour>
  </outline>
</glyph>
<glyph name="logicalnot" format="2">
  <advance width="405"/>
  <unicode hex="00AC"/>
  <outline>
    <contour>
      <point x="378" y="192" type="curve" smooth="yes"/>
      <point x="394" y="192"/>
      <point x="411" y="207"/>
      <point x="415" y="224" type="curve" smooth="yes"/>
      <point x="424" y="259"/>
      <point x="417" y="305"/>
      <point x="432" y="379" type="curve" smooth="yes"/>
      <point x="435" y="396"/>
      <point x="434" y="401"/>
      <point x="416" y="401" type="curve" smooth="yes"/>
      <point x="257" y="401"/>
      <point x="240" y="423"/>
      <point x="197" y="423" type="curve" smooth="yes"/>
      <point x="176" y="423"/>
      <point x="159" y="409"/>
      <point x="155" y="392" type="curve" smooth="yes"/>
      <point x="151" y="376"/>
      <point x="164" y="363"/>
      <point x="181" y="363" type="curve" smooth="yes"/>
      <point x="224" y="363"/>
      <point x="253" y="385"/>
      <point x="427" y="385" type="curve"/>
      <point x="419" y="394" type="line"/>
      <point x="391" y="301"/>
      <point x="364" y="258"/>
      <point x="355" y="225" type="curve" smooth="yes"/>
      <point x="351" y="209"/>
      <point x="361" y="192"/>
    </contour>
  </outline>
</glyph>
<glyph name="degree" format="2">
  <advance width="317"/>
  <unicode hex="00B0"/>
  <outline>
    <contour>
      <point x="338" y="682" type="curve" smooth="yes"/>
      <point x="246" y="682"/>
      <point x="166" y="599"/>
      <point x="166" y="503" type="curve" smooth="yes"/>
      <point x="166" y="445"/>
      <point x="202" y="410"/>
      <point x="262" y="410" type="curve" smooth="yes"/>
      <point x="354" y="410"/>
      <point x="434" y="493"/>
      <point x="434" y="589" type="curve" smooth="yes"/>
      <point x="434" y="646"/>
      <point x="397" y="682"/>
    </contour>
    <contour>
      <point x="270" y="425" type="curve" smooth="yes"/>
      <point x="238" y="425"/>
      <point x="219" y="446"/>
      <point x="219" y="493" type="curve" smooth="yes"/>
      <point x="219" y="586"/>
      <point x="272" y="666"/>
      <point x="326" y="666" type="curve" smooth="yes"/>
      <point x="362" y="666"/>
      <point x="381" y="645"/>
      <point x="381" y="599" type="curve" smooth="yes"/>
      <point x="381" y="504"/>
      <point x="327" y="425"/>
    </contour>
  </outline>
</glyph>
<glyph name="onesuperior" format="2">
  <advance width="279"/>
  <unicode hex="00B9"/>
  <outline>
    <contour>
      <point x="210" y="598" type="line" smooth="yes"/>
      <point x="204" y="598"/>
      <point x="202" y="602"/>
      <point x="203" y="607" type="curve" smooth="yes"/>
      <point x="204" y="612"/>
      <point x="209" y="616"/>
      <point x="216" y="616" type="curve" smooth="yes"/>
      <point x="245" y="616" type="line" smooth="yes"/>
      <point x="272" y="616"/>
      <point x="292" y="621"/>
      <point x="317" y="641" type="curve" smooth="yes"/>
      <point x="324" y="647"/>
      <point x="328" y="651"/>
      <point x="335" y="651" type="curve" smooth="yes"/>
      <point x="339" y="651"/>
      <point x="341" y="648"/>
      <point x="339" y="640" type="curve" smooth="yes"/>
      <point x="260" y="349" type="line" smooth="yes"/>
      <point x="256" y="336"/>
      <point x="265" y="328"/>
      <point x="276" y="326" type="curve" smooth="yes"/>
      <point x="316" y="318" type="line" smooth="yes"/>
      <point x="320" y="317"/>
      <point x="323" y="315"/>
      <point x="322" y="311" type="curve" smooth="yes"/>
      <point x="321" y="307"/>
      <point x="318" y="305"/>
      <point x="313" y="305" type="curve" smooth="yes"/>
      <point x="133" y="305" type="line" smooth="yes"/>
      <point x="127" y="305"/>
      <point x="125" y="308"/>
      <point x="126" y="312" type="curve" smooth="yes"/>
      <point x="127" y="316"/>
      <point x="130" y="318"/>
      <point x="136" y="319" type="curve" smooth="yes"/>
      <point x="172" y="327" type="line" smooth="yes"/>
      <point x="187" y="330"/>
      <point x="200" y="335"/>
      <point x="204" y="349" type="curve" smooth="yes"/>
      <point x="266" y="576" type="line" smooth="yes"/>
      <point x="270" y="592"/>
      <point x="266" y="598"/>
      <point x="254" y="598" type="curve" smooth="yes"/>
    </contour>
  </outline>
</glyph>
<glyph name="Aring" format="2">
  <advance width="628"/>
  <unicode hex="00C5"/>
  <outline>
    <contour>
      <point x="561" y="665" type="curve" smooth="yes"/>
      <point x="615" y="665"/>
      <point x="668" y="709"/>
      <point x="683" y="762" type="curve" smooth="yes"/>
      <point x="697" y="815"/>
      <point x="666" y="857"/>
      <point x="612" y="857" type="curve" smooth="yes"/>
      <point x="559" y="857"/>
      <point x="506" y="815"/>
      <point x="492" y="762" type="curve" smooth="yes"/>
      <point x="477" y="709"/>
      <point x="508" y="665"/>
    </contour>
    <contour>
      <point x="572" y="705" type="curve" smooth="yes"/>
      <point x="540" y="705"/>
      <point x="523" y="730"/>
      <point x="532" y="762" type="curve" smooth="yes"/>
      <point x="540" y="793"/>
      <point x="571" y="818"/>
      <point x="603" y="818" type="curve" smooth="yes"/>
      <point x="633" y="818"/>
      <point x="652" y="793"/>
      <point x="644" y="762" type="curve" smooth="yes"/>
      <point x="635" y="730"/>
      <point x="602" y="705"/>
    </contour>
    <contour>
      <point x="230" y="254" type="line"/>
      <point x="216" y="211" type="line"/>
      <point x="524" y="211" type="line"/>
      <point x="535" y="254" type="line"/>
    </contour>
    <contour>
      <point x="116" y="121" type="line" smooth="yes"/>
      <point x="97" y="91"/>
      <point x="69.20703327272979" y="64.40234442424327"/>
      <point x="44" y="56" type="curve" smooth="yes"/>
      <point x="20.170496760057922" y="47.75132580155851"/>
      <point x="9.0" y="35.8125"/>
      <point x="9" y="22" type="curve" smooth="yes"/>
      <point x="9" y="8"/>
      <point x="18" y="0"/>
      <point x="34" y="0" type="curve" smooth="yes"/>
      <point x="197" y="0" type="line" smooth="yes"/>
      <point x="221.0" y="0.0"/>
      <point x="235" y="7"/>
      <point x="235" y="22" type="curve" smooth="yes"/>
      <point x="235" y="36"/>
      <point x="226" y="43"/>
      <point x="201" y="57" type="curve" smooth="yes"/>
      <point x="181" y="69"/>
      <point x="174" y="82"/>
      <point x="174" y="97" type="curve" smooth="yes"/>
      <point x="174" y="111"/>
      <point x="177" y="124"/>
      <point x="193" y="149" type="curve" smooth="yes"/>
      <point x="283" y="287" type="line" smooth="yes"/>
      <point x="471" y="575"/>
      <point x="518" y="615"/>
      <point x="589" y="651" type="curve"/>
      <point x="513" y="631" type="line"/>
      <point x="499" y="435"/>
      <point x="491" y="275"/>
      <point x="475" y="113" type="curve" smooth="yes"/>
      <point x="472" y="82"/>
      <point x="448" y="63"/>
      <point x="429" y="56" type="curve" smooth="yes"/>
      <point x="403" y="46" type="line" smooth="yes"/>
      <point x="388" y="40"/>
      <point x="371" y="35"/>
      <point x="371" y="21" type="curve" smooth="yes"/>
      <point x="371" y="5"/>
      <point x="376.0" y="0"/>
      <point x="400" y="0" type="curve" smooth="yes"/>
      <point x="589" y="0" type="line" smooth="yes"/>
      <point x="621" y="0"/>
      <point x="637" y="10"/>
      <point x="637" y="21" type="curve" smooth="yes"/>
      <point x="637.0" y="34.2"/>
      <point x="628.907567170334" y="35.25744504245396"/>
      <point x="606" y="54" type="curve" smooth="yes"/>
      <point x="585.3143272088257" y="71.73057667814942"/>
      <point x="577.7345874490948" y="94.50679837103374"/>
      <point x="579" y="135" type="curve" smooth="yes"/>
      <point x="584.7908790880134" y="288.45829583235525"/>
      <point x="600" y="494"/>
      <point x="615" y="688" type="curve"/>
      <point x="616" y="704" type="line"/>
      <point x="527.6268656716418" y="704.0"/>
      <point x="433" y="615"/>
      <point x="234" y="305" type="curve" smooth="yes"/>
    </contour>
  </outline>
</glyph>
<glyph name="Eth" format="2">
  <advance width="644"/>
  <unicode hex="00D0"/>
  <outline>
    <contour>
      <point x="113" y="363" type="curve" smooth="yes"/>
      <point x="113" y="356"/>
      <point x="119" y="352"/>
      <point x="128" y="352" type="curve" smooth="yes"/>
      <point x="385" y="352" type="line" smooth="yes"/>
      <point x="394" y="352"/>
      <point x="400" y="356"/>
      <point x="400" y="363" type="curve" smooth="yes"/>
      <point x="400" y="369"/>
      <point x="394" y="374"/>
      <point x="385" y="374" type="curve" smooth="yes"/>
      <point x="128" y="374" type="line" smooth="yes"/>
      <point x="119" y="374"/>
      <point x="113" y="369"/>
    </contour>
    <component base="D" xOffset="10"/>
  </outline>
</glyph>
<glyph name="Oslash" format="2">
  <advance width="665"/>
  <unicode hex="00D8"/>
  <guideline x="839" y="719" angle="0" identifier="kp04allRVy"/>
  <guideline x="151" y="-21" angle="0" identifier="Wz0xVTCb5d"/>
  <outline>
    <contour>
      <point x="106" y="-18.0" type="curve" smooth="yes"/>
      <point x="111" y="-23"/>
      <point x="119" y="-21"/>
      <point x="124" y="-16.0" type="curve" smooth="yes"/>
      <point x="738" y="698.0" type="line" smooth="yes"/>
      <point x="743" y="704"/>
      <point x="746" y="710"/>
      <point x="740" y="716.0" type="curve" smooth="yes"/>
      <point x="734" y="722"/>
      <point x="727" y="720"/>
      <point x="721" y="714.0" type="curve" smooth="yes"/>
      <point x="108" y="0.0" type="line" smooth="yes"/>
      <point x="103" y="-5"/>
      <point x="101" y="-12"/>
    </contour>
    <component base="O"/>
  </outline>
</glyph>
<glyph name="Thorn" format="2">
  <advance width="567"/>
  <unicode hex="00DE"/>
  <outline>
    <contour>
      <point x="633" y="392" type="curve" smooth="yes"/>
      <point x="633" y="503"/>
      <point x="558" y="569"/>
      <point x="430" y="569" type="curve" smooth="yes"/>
      <point x="375" y="569"/>
      <point x="340" y="567"/>
      <point x="294" y="560" type="curve"/>
      <point x="298" y="544" type="line"/>
      <point x="329" y="550"/>
      <point x="354" y="553"/>
      <point x="405" y="553" type="curve" smooth="yes"/>
      <point x="494" y="553"/>
      <point x="554" y="503"/>
      <point x="554" y="397" type="curve" smooth="yes"/>
      <point x="554" y="261"/>
      <point x="471" y="161"/>
      <point x="345" y="161" type="curve" smooth="yes"/>
      <point x="298" y="161"/>
      <point x="254" y="170"/>
      <point x="221" y="187" type="curve"/>
      <point x="221" y="169" type="line"/>
      <point x="255" y="153"/>
      <point x="303" y="144"/>
      <point x="350" y="144" type="curve" smooth="yes"/>
      <point x="517" y="144"/>
      <point x="633" y="252"/>
    </contour>
    <component base="I" xOffset="9"/>
  </outline>
</glyph>
<glyph name="eth" format="2">
  <advance width="384"/>
  <unicode hex="00F0"/>
  <outline>
    <contour>
      <point x="319" y="440" type="curve" smooth="yes"/>
      <point x="195" y="440"/>
      <point x="70" y="288"/>
      <point x="70" y="145" type="curve" smooth="yes"/>
      <point x="70" y="43"/>
      <point x="120" y="-10"/>
      <point x="182" y="-10" type="curve" smooth="yes"/>
      <point x="305" y="-10"/>
      <point x="436" y="129"/>
      <point x="436" y="338" type="curve" smooth="yes"/>
      <point x="436" y="542"/>
      <point x="322" y="682"/>
      <point x="210" y="716" type="curve" smooth="yes"/>
      <point x="206" y="717"/>
      <point x="204" y="712"/>
      <point x="207" y="710" type="curve" smooth="yes"/>
      <point x="304" y="650"/>
      <point x="366" y="507"/>
      <point x="371" y="305" type="curve"/>
      <point x="418" y="325" type="line"/>
      <point x="418" y="397"/>
      <point x="384" y="440"/>
    </contour>
    <contour>
      <point x="202" y="11" type="curve" smooth="yes"/>
      <point x="164" y="11"/>
      <point x="138" y="40"/>
      <point x="138" y="120" type="curve" smooth="yes"/>
      <point x="138" y="271"/>
      <point x="234" y="424"/>
      <point x="305" y="424" type="curve" smooth="yes"/>
      <point x="344" y="424"/>
      <point x="365" y="393"/>
      <point x="365" y="323" type="curve" smooth="yes"/>
      <point x="365" y="147"/>
      <point x="275" y="11"/>
    </contour>
    <contour>
      <point x="233" y="529" type="curve" smooth="yes"/>
      <point x="234" y="525"/>
      <point x="240" y="524"/>
      <point x="246" y="528" type="curve" smooth="yes"/>
      <point x="422" y="634" type="line" smooth="yes"/>
      <point x="427" y="638"/>
      <point x="430" y="644"/>
      <point x="427" y="647" type="curve" smooth="yes"/>
      <point x="426" y="651"/>
      <point x="420" y="652"/>
      <point x="414" y="648" type="curve" smooth="yes"/>
      <point x="238" y="542" type="line" smooth="yes"/>
      <point x="232" y="538"/>
      <point x="230" y="532"/>
    </contour>
  </outline>
</glyph>
<glyph name="oslash" format="2">
  <advance width="391"/>
  <unicode hex="00F8"/>
  <outline>
    <contour>
      <point x="74" y="-8" type="curve" smooth="yes"/>
      <point x="78" y="-12"/>
      <point x="83" y="-10"/>
      <point x="87" y="-6" type="curve" smooth="yes"/>
      <point x="434" y="422" type="line" smooth="yes"/>
      <point x="438" y="427"/>
      <point x="442" y="433"/>
      <point x="437" y="438" type="curve" smooth="yes"/>
      <point x="433" y="441"/>
      <point x="428" y="441"/>
      <point x="424" y="436" type="curve" smooth="yes"/>
      <point x="78" y="8" type="line" smooth="yes"/>
      <point x="72" y="0"/>
      <point x="71" y="-5"/>
    </contour>
    <component base="o"/>
  </outline>
</glyph>
<glyph name="thorn" format="2">
  <advance width="512"/>
  <unicode hex="00FE"/>
  <guideline x="567" y="715" angle="0" identifier="VqlmGBdHaA"/>
  <outline>
    <contour>
      <point x="145" y="291" type="curve" smooth="yes"/>
      <point x="148" y="291"/>
      <point x="150" y="293"/>
      <point x="152" y="296" type="curve" smooth="yes"/>
      <point x="233" y="385"/>
      <point x="297" y="417"/>
      <point x="349" y="417" type="curve" smooth="yes"/>
      <point x="405" y="417"/>
      <point x="434" y="384"/>
      <point x="434" y="309" type="curve" smooth="yes"/>
      <point x="434" y="119"/>
      <point x="321" y="7"/>
      <point x="239" y="7" type="curve" smooth="yes"/>
      <point x="194" y="7"/>
      <point x="171" y="20"/>
      <point x="155" y="64" type="curve"/>
      <point x="145" y="60" type="line"/>
      <point x="160" y="10"/>
      <point x="192" y="-10"/>
      <point x="238" y="-10" type="curve" smooth="yes"/>
      <point x="349" y="-10"/>
      <point x="504" y="118"/>
      <point x="504" y="311" type="curve" smooth="yes"/>
      <point x="504" y="399"/>
      <point x="456" y="440"/>
      <point x="384" y="440" type="curve" smooth="yes"/>
      <point x="296" y="440"/>
      <point x="223" y="395"/>
      <point x="143" y="305" type="curve" smooth="yes"/>
      <point x="141" y="303"/>
      <point x="140" y="300"/>
      <point x="140" y="297" type="curve" smooth="yes"/>
      <point x="140" y="293"/>
      <point x="143" y="291"/>
    </contour>
    <contour>
      <point x="182" y="-228" type="line" smooth="yes"/>
      <point x="187" y="-228"/>
      <point x="190" y="-226"/>
      <point x="190" y="-223" type="curve" smooth="yes"/>
      <point x="190" y="-221"/>
      <point x="189" y="-218"/>
      <point x="184" y="-218" type="curve" smooth="yes"/>
      <point x="142" y="-215"/>
      <point x="130" y="-207"/>
      <point x="130" y="-192" type="curve" smooth="yes"/>
      <point x="130" y="-186"/>
      <point x="132" y="-177"/>
      <point x="134" y="-170" type="curve" smooth="yes"/>
      <point x="362" y="625" type="line" smooth="yes"/>
      <point x="381" y="691"/>
      <point x="374.3636363636364" y="715.0"/>
      <point x="345" y="715" type="curve" smooth="yes"/>
      <point x="312.56896551724134" y="715.0"/>
      <point x="288" y="688"/>
      <point x="288" y="654" type="curve" smooth="yes"/>
      <point x="288" y="635.0"/>
      <point x="289" y="618"/>
      <point x="289" y="599" type="curve" smooth="yes"/>
      <point x="289" y="580"/>
      <point x="277.18221136926377" y="537.4514627396935"/>
      <point x="267" y="503" type="curve" smooth="yes"/>
      <point x="61" y="-194" type="line"/>
      <point x="54" y="-216"/>
      <point x="34" y="-226"/>
      <point x="5" y="-229" type="curve" smooth="yes"/>
      <point x="-1" y="-230"/>
      <point x="-3" y="-232"/>
      <point x="-3" y="-233" type="curve" smooth="yes"/>
      <point x="-3" y="-236"/>
      <point x="0" y="-238"/>
      <point x="5" y="-238" type="curve" smooth="yes"/>
    </contour>
  </outline>
</glyph>
<glyph name="Hbar" format="2">
  <advance width="664"/>
  <unicode hex="0126"/>
  <outline>
    <contour>
      <point x="182" y="506" type="curve" smooth="yes"/>
      <point x="182.0" y="499.6363636363636"/>
      <point x="188.0" y="496"/>
      <point x="197" y="496" type="curve" smooth="yes"/>
      <point x="742" y="496" type="line" smooth="yes"/>
      <point x="751.0" y="496"/>
      <point x="757.0" y="499.6363636363636"/>
      <point x="757" y="506" type="curve" smooth="yes"/>
      <point x="757.0" y="511.45454545454544"/>
      <point x="751.0" y="516"/>
      <point x="742" y="516" type="curve" smooth="yes"/>
      <point x="197" y="516" type="line" smooth="yes"/>
      <point x="188.0" y="516"/>
      <point x="182.0" y="511.45454545454544"/>
    </contour>
    <component base="H"/>
  </outline>
</glyph>
<glyph name="lslash" format="2">
  <advance width="227"/>
  <unicode hex="0142"/>
  <outline>
    <contour>
      <point x="69" y="306" type="curve" smooth="yes"/>
      <point x="70" y="302"/>
      <point x="75" y="300"/>
      <point x="81" y="302" type="curve" smooth="yes"/>
      <point x="317" y="399" type="line" smooth="yes"/>
      <point x="322" y="401"/>
      <point x="326" y="407"/>
      <point x="323" y="411" type="curve" smooth="yes"/>
      <point x="322" y="414"/>
      <point x="317" y="417"/>
      <point x="310" y="414" type="curve" smooth="yes"/>
      <point x="76" y="318" type="line" smooth="yes"/>
      <point x="69" y="315"/>
      <point x="66" y="310"/>
    </contour>
    <component base="l"/>
  </outline>
</glyph>
<glyph name="tbar" format="2">
  <advance width="252"/>
  <unicode hex="0167"/>
  <outline>
    <contour>
      <point x="69" y="234" type="curve" smooth="yes"/>
      <point x="69.0" y="230.0"/>
      <point x="73" y="226"/>
      <point x="80" y="226" type="curve" smooth="yes"/>
      <point x="283" y="226" type="line" smooth="yes"/>
      <point x="289.0" y="226.0"/>
      <point x="294.0" y="230.0"/>
      <point x="294" y="234" type="curve" smooth="yes"/>
      <point x="294.0" y="238.0"/>
      <point x="290.0" y="242.0"/>
      <point x="283" y="242" type="curve" smooth="yes"/>
      <point x="80" y="242" type="line" smooth="yes"/>
      <point x="73" y="242"/>
      <point x="69.0" y="238.0"/>
    </contour>
    <component base="t"/>
  </outline>
</glyph>
<glyph name="mu" format="2">
  <advance width="453"/>
  <unicode hex="03BC"/>
  <outline>
    <contour>
      <point x="101" y="96" type="line"/>
      <point x="55" y="-75"/>
      <point x="10" y="-160"/>
      <point x="-2" y="-207" type="curve" smooth="yes"/>
      <point x="-8.025049966348087" y="-232.1043748597837"/>
      <point x="4.444444444444443" y="-247.0"/>
      <point x="27" y="-247" type="curve" smooth="yes"/>
      <point x="45.116279069767444" y="-247.0"/>
      <point x="62.01197887464332" y="-234.94409858499787"/>
      <point x="68" y="-207" type="curve" smooth="yes"/>
      <point x="78" y="-161"/>
      <point x="79" y="-75"/>
      <point x="118" y="94" type="curve"/>
    </contour>
    <component base="u"/>
  </outline>
</glyph>
<glyph name="endash" format="2">
  <advance width="605"/>
  <unicode hex="2013"/>
  <outline>
    <contour>
      <point x="622" y="253" type="curve" smooth="yes"/>
      <point x="120" y="253" type="line" smooth="yes"/>
      <point x="108" y="253"/>
      <point x="100" y="248"/>
      <point x="100" y="242" type="curve" smooth="yes"/>
      <point x="100" y="236"/>
      <point x="105" y="233"/>
      <point x="113" y="233" type="curve" smooth="yes"/>
      <point x="615" y="233" type="line" smooth="yes"/>
      <point x="627" y="233"/>
      <point x="635" y="238"/>
      <point x="635" y="244" type="curve" smooth="yes"/>
      <point x="635" y="250"/>
      <point x="630.0" y="253.0"/>
    </contour>
  </outline>
</glyph>
<glyph name="minute" format="2">
  <advance width="172"/>
  <unicode hex="2032"/>
  <outline>
    <contour>
      <point x="151" y="450"/>
      <point x="153" y="446"/>
      <point x="158" y="446" type="curve" smooth="yes"/>
      <point x="162" y="446"/>
      <point x="166" y="448"/>
      <point x="170" y="453" type="curve" smooth="yes"/>
      <point x="379" y="699" type="line" smooth="yes"/>
      <point x="391" y="713"/>
      <point x="397" y="723"/>
      <point x="399" y="734" type="curve" smooth="yes"/>
      <point x="402" y="748"/>
      <point x="391" y="758"/>
      <point x="378" y="758" type="curve" smooth="yes"/>
      <point x="362" y="758"/>
      <point x="349" y="746"/>
      <point x="336" y="726" type="curve" smooth="yes"/>
      <point x="157" y="464" type="line" smooth="yes"/>
      <point x="154" y="460"/>
      <point x="153" y="458"/>
      <point x="152" y="455" type="curve" smooth="yes"/>
    </contour>
  </outline>
</glyph>
<glyph name="commercialminussign" format="2">
  <advance width="442"/>
  <unicode hex="2052"/>
  <outline>
    <contour>
      <point x="546" y="593" type="curve" smooth="yes"/>
      <point x="558" y="606"/>
      <point x="564" y="618"/>
      <point x="564" y="629" type="curve" smooth="yes"/>
      <point x="564" y="642"/>
      <point x="556" y="650"/>
      <point x="540" y="650" type="curve" smooth="yes"/>
      <point x="526" y="650"/>
      <point x="514" y="635"/>
      <point x="503" y="618" type="curve" smooth="yes"/>
      <point x="445" y="531"/>
      <point x="401" y="460"/>
      <point x="287" y="308" type="curve" smooth="yes"/>
      <point x="188" y="177"/>
      <point x="135" y="126"/>
      <point x="64" y="44" type="curve" smooth="yes"/>
      <point x="51" y="30"/>
      <point x="48" y="20"/>
      <point x="47" y="10" type="curve" smooth="yes"/>
      <point x="47" y="-4"/>
      <point x="55" y="-12"/>
      <point x="71" y="-12" type="curve" smooth="yes"/>
      <point x="83" y="-12"/>
      <point x="95" y="-1"/>
      <point x="109" y="19" type="curve" smooth="yes"/>
      <point x="162" y="98"/>
      <point x="204" y="171"/>
      <point x="301" y="298" type="curve" smooth="yes"/>
      <point x="414" y="447"/>
      <point x="476" y="512"/>
    </contour>
    <component base="periodcentered" xOffset="169" yOffset="-202"/>
    <component base="periodcentered" xOffset="73" yOffset="323"/>
  </outline>
</glyph>
<glyph name="colonmonetary" format="2">
  <advance width="527"/>
  <unicode hex="20A1"/>
  <outline>
    <contour>
      <point x="193" y="-23" type="curve" smooth="yes"/>
      <point x="211" y="20"/>
      <point x="210" y="80"/>
      <point x="323" y="331" type="curve" smooth="yes"/>
      <point x="434" y="583"/>
      <point x="471" y="625"/>
      <point x="490" y="667" type="curve" smooth="yes"/>
      <point x="501" y="691"/>
      <point x="493" y="706"/>
      <point x="480" y="713" type="curve" smooth="yes"/>
      <point x="465" y="719"/>
      <point x="446" y="714"/>
      <point x="436" y="691" type="curve" smooth="yes"/>
      <point x="416" y="648"/>
      <point x="418" y="589"/>
      <point x="305" y="338" type="curve" smooth="yes"/>
      <point x="194" y="86"/>
      <point x="157" y="43"/>
      <point x="138" y="1" type="curve" smooth="yes"/>
      <point x="128" y="-22"/>
      <point x="135" y="-38"/>
      <point x="149" y="-44" type="curve" smooth="yes"/>
      <point x="163" y="-50"/>
      <point x="183" y="-45"/>
    </contour>
    <contour>
      <point x="316" y="-39" type="curve" smooth="yes"/>
      <point x="334" y="4"/>
      <point x="333" y="64"/>
      <point x="446" y="315" type="curve" smooth="yes"/>
      <point x="557" y="567"/>
      <point x="594" y="609"/>
      <point x="613" y="651" type="curve" smooth="yes"/>
      <point x="624" y="675"/>
      <point x="616" y="690"/>
      <point x="603" y="697" type="curve" smooth="yes"/>
      <point x="588" y="703"/>
      <point x="569" y="698"/>
      <point x="559" y="675" type="curve" smooth="yes"/>
      <point x="539" y="632"/>
      <point x="541" y="573"/>
      <point x="428" y="322" type="curve" smooth="yes"/>
      <point x="317" y="70"/>
      <point x="280" y="27"/>
      <point x="261" y="-15" type="curve" smooth="yes"/>
      <point x="251" y="-38"/>
      <point x="258" y="-54"/>
      <point x="272" y="-60" type="curve" smooth="yes"/>
      <point x="286" y="-66"/>
      <point x="306" y="-61"/>
    </contour>
    <contour>
      <point x="548" y="184" type="curve" smooth="yes"/>
      <point x="548.0" y="187"/>
      <point x="545" y="189"/>
      <point x="542" y="189" type="curve" smooth="yes"/>
      <point x="537" y="189"/>
      <point x="534" y="186"/>
      <point x="526" y="173" type="curve" smooth="yes"/>
      <point x="468" y="80"/>
      <point x="396" y="44"/>
      <point x="338" y="44" type="curve" smooth="yes"/>
      <point x="247" y="44"/>
      <point x="185.0" y="125"/>
      <point x="185" y="260" type="curve" smooth="yes"/>
      <point x="185.0" y="436"/>
      <point x="302.0" y="608.0"/>
      <point x="434" y="608" type="curve" smooth="yes"/>
      <point x="511.0" y="608.0"/>
      <point x="556" y="579"/>
      <point x="578" y="506" type="curve" smooth="yes"/>
      <point x="589" y="470" type="line" smooth="yes"/>
      <point x="592" y="460"/>
      <point x="596" y="455"/>
      <point x="601" y="455" type="curve" smooth="yes"/>
      <point x="606" y="455"/>
      <point x="609" y="459"/>
      <point x="609" y="466" type="curve" smooth="yes"/>
      <point x="611" y="618" type="line" smooth="yes"/>
      <point x="611" y="624"/>
      <point x="606" y="629"/>
      <point x="600" y="629" type="curve" smooth="yes"/>
      <point x="586" y="629"/>
      <point x="575" y="597"/>
      <point x="559" y="597" type="curve" smooth="yes"/>
      <point x="541" y="597"/>
      <point x="516" y="629"/>
      <point x="441" y="629" type="curve" smooth="yes"/>
      <point x="268" y="629"/>
      <point x="113" y="421"/>
      <point x="113" y="217" type="curve" smooth="yes"/>
      <point x="113" y="88"/>
      <point x="183" y="0"/>
      <point x="290" y="0" type="curve" smooth="yes"/>
      <point x="405" y="0"/>
      <point x="489" y="71"/>
      <point x="541" y="165" type="curve" smooth="yes"/>
      <point x="546" y="173"/>
      <point x="548.0" y="178.0"/>
    </contour>
  </outline>
</glyph>
<glyph name="franc" format="2">
  <advance width="493"/>
  <unicode hex="20A3"/>
  <outline>
    <contour>
      <point x="201" y="629" type="curve" smooth="yes"/>
      <point x="201.0" y="626"/>
      <point x="203" y="624"/>
      <point x="210" y="621" type="curve" smooth="yes"/>
      <point x="248" y="607" type="line" smooth="yes"/>
      <point x="264" y="601"/>
      <point x="270" y="595"/>
      <point x="267" y="581" type="curve" smooth="yes"/>
      <point x="231" y="404"/>
      <point x="182" y="232"/>
      <point x="135" y="67" type="curve" smooth="yes"/>
      <point x="129" y="45"/>
      <point x="119" y="34"/>
      <point x="101" y="29" type="curve" smooth="yes"/>
      <point x="58" y="18" type="line" smooth="yes"/>
      <point x="49" y="16"/>
      <point x="42" y="15"/>
      <point x="41" y="9" type="curve" smooth="yes"/>
      <point x="40" y="3"/>
      <point x="44" y="0"/>
      <point x="52" y="0" type="curve" smooth="yes"/>
      <point x="273" y="0" type="line" smooth="yes"/>
      <point x="283" y="0"/>
      <point x="286" y="4"/>
      <point x="286" y="7" type="curve" smooth="yes"/>
      <point x="286" y="12"/>
      <point x="283" y="13"/>
      <point x="277" y="15" type="curve" smooth="yes"/>
      <point x="227" y="29" type="line" smooth="yes"/>
      <point x="209" y="34"/>
      <point x="205" y="47"/>
      <point x="209" y="67" type="curve" smooth="yes"/>
      <point x="247" y="222"/>
      <point x="298" y="406"/>
      <point x="357" y="617" type="curve"/>
      <point x="466" y="617" type="line" smooth="yes"/>
      <point x="521" y="617"/>
      <point x="548" y="597"/>
      <point x="568" y="547" type="curve" smooth="yes"/>
      <point x="587" y="499" type="line" smooth="yes"/>
      <point x="589" y="493"/>
      <point x="592" y="491"/>
      <point x="597" y="491" type="curve" smooth="yes"/>
      <point x="600" y="491"/>
      <point x="604" y="494"/>
      <point x="603" y="502" type="curve" smooth="yes"/>
      <point x="592" y="643" type="line" smooth="yes"/>
      <point x="592" y="647"/>
      <point x="590" y="649"/>
      <point x="587" y="649" type="curve" smooth="yes"/>
      <point x="582" y="649"/>
      <point x="579" y="648"/>
      <point x="575" y="645" type="curve" smooth="yes"/>
      <point x="567" y="639"/>
      <point x="551" y="636"/>
      <point x="541" y="636" type="curve" smooth="yes"/>
      <point x="214" y="636" type="line" smooth="yes"/>
      <point x="205" y="636"/>
      <point x="201.0" y="633"/>
    </contour>
    <contour>
      <point x="253" y="320" type="line"/>
      <point x="247" y="301" type="line"/>
      <point x="402" y="301" type="line" smooth="yes"/>
      <point x="441" y="301"/>
      <point x="462" y="280"/>
      <point x="476" y="244" type="curve" smooth="yes"/>
      <point x="479" y="237"/>
      <point x="482" y="235"/>
      <point x="487" y="235" type="curve" smooth="yes"/>
      <point x="491" y="235"/>
      <point x="493" y="238"/>
      <point x="492" y="245" type="curve" smooth="yes"/>
      <point x="463" y="384" type="line" smooth="yes"/>
      <point x="462" y="388"/>
      <point x="461" y="392"/>
      <point x="456" y="392" type="curve" smooth="yes"/>
      <point x="453" y="392"/>
      <point x="451" y="390"/>
      <point x="450" y="384" type="curve" smooth="yes"/>
      <point x="440" y="339"/>
      <point x="424" y="320"/>
      <point x="385" y="320" type="curve" smooth="yes"/>
    </contour>
    <contour>
      <point x="102" y="193" type="curve" smooth="yes"/>
      <point x="86" y="193"/>
      <point x="77" y="183"/>
      <point x="75" y="171" type="curve" smooth="yes"/>
      <point x="74" y="159"/>
      <point x="77" y="149"/>
      <point x="93" y="149" type="curve" smooth="yes"/>
      <point x="108" y="149"/>
      <point x="140" y="163"/>
      <point x="221" y="163" type="curve" smooth="yes"/>
      <point x="303" y="163"/>
      <point x="329" y="149"/>
      <point x="343" y="149" type="curve" smooth="yes"/>
      <point x="358" y="149"/>
      <point x="368" y="159"/>
      <point x="369" y="171" type="curve" smooth="yes"/>
      <point x="371" y="183"/>
      <point x="368" y="193"/>
      <point x="351" y="193" type="curve" smooth="yes"/>
      <point x="337" y="193"/>
      <point x="306" y="179"/>
      <point x="224" y="179" type="curve" smooth="yes"/>
      <point x="143" y="179"/>
      <point x="116" y="193"/>
    </contour>
  </outline>
</glyph>
<glyph name="lira" format="2">
  <advance width="485"/>
  <unicode hex="20A4"/>
  <outline>
    <contour>
      <point x="160" y="394" type="curve" smooth="yes"/>
      <point x="144" y="394"/>
      <point x="134" y="381"/>
      <point x="131" y="368" type="curve" smooth="yes"/>
      <point x="129" y="355"/>
      <point x="134" y="342"/>
      <point x="150" y="342" type="curve" smooth="yes"/>
      <point x="168" y="342"/>
      <point x="205" y="360"/>
      <point x="301" y="360" type="curve" smooth="yes"/>
      <point x="397" y="360"/>
      <point x="427" y="342"/>
      <point x="444" y="342" type="curve" smooth="yes"/>
      <point x="460" y="342"/>
      <point x="469" y="355"/>
      <point x="472" y="368" type="curve" smooth="yes"/>
      <point x="474" y="381"/>
      <point x="470" y="394"/>
      <point x="453" y="394" type="curve" smooth="yes"/>
      <point x="437" y="394"/>
      <point x="400" y="376"/>
      <point x="304" y="376" type="curve" smooth="yes"/>
      <point x="208" y="376"/>
      <point x="177" y="394"/>
    </contour>
    <contour>
      <point x="133" y="284" type="curve" smooth="yes"/>
      <point x="117" y="284"/>
      <point x="107" y="271"/>
      <point x="104" y="258" type="curve" smooth="yes"/>
      <point x="102" y="245"/>
      <point x="107" y="232"/>
      <point x="123" y="232" type="curve" smooth="yes"/>
      <point x="141" y="232"/>
      <point x="178" y="250"/>
      <point x="274" y="250" type="curve" smooth="yes"/>
      <point x="370" y="250"/>
      <point x="400" y="232"/>
      <point x="417" y="232" type="curve" smooth="yes"/>
      <point x="433" y="232"/>
      <point x="442" y="245"/>
      <point x="445" y="258" type="curve" smooth="yes"/>
      <point x="447" y="271"/>
      <point x="443" y="284"/>
      <point x="426" y="284" type="curve" smooth="yes"/>
      <point x="410" y="284"/>
      <point x="373" y="266"/>
      <point x="277" y="266" type="curve" smooth="yes"/>
      <point x="181" y="266"/>
      <point x="150" y="284"/>
    </contour>
    <contour>
      <point x="109" y="110" type="curve" smooth="yes"/>
      <point x="202" y="110"/>
      <point x="241" y="-10"/>
      <point x="358" y="-10" type="curve" smooth="yes"/>
      <point x="428" y="-10"/>
      <point x="483" y="36"/>
      <point x="504" y="119" type="curve" smooth="yes"/>
      <point x="505" y="124"/>
      <point x="504" y="128"/>
      <point x="499" y="128" type="curve" smooth="yes"/>
      <point x="496" y="128"/>
      <point x="492" y="125"/>
      <point x="491" y="122" type="curve" smooth="yes"/>
      <point x="468" y="76"/>
      <point x="432" y="58"/>
      <point x="385" y="58" type="curve" smooth="yes"/>
      <point x="305" y="58"/>
      <point x="237" y="135"/>
      <point x="136" y="135" type="curve" smooth="yes"/>
      <point x="74" y="135"/>
      <point x="23" y="100"/>
      <point x="23" y="51" type="curve" smooth="yes"/>
      <point x="23" y="15"/>
      <point x="53" y="-10"/>
      <point x="96" y="-10" type="curve" smooth="yes"/>
      <point x="147" y="-10"/>
      <point x="219" y="28"/>
      <point x="242" y="117" type="curve" smooth="yes"/>
      <point x="270" y="223"/>
      <point x="280" y="349"/>
      <point x="314" y="484" type="curve" smooth="yes"/>
      <point x="341" y="594"/>
      <point x="386" y="630"/>
      <point x="440" y="630" type="curve" smooth="yes"/>
      <point x="483" y="630"/>
      <point x="503" y="603"/>
      <point x="488" y="551" type="curve" smooth="yes"/>
      <point x="482" y="530" type="line" smooth="yes"/>
      <point x="471" y="493"/>
      <point x="486" y="471"/>
      <point x="515" y="471" type="curve" smooth="yes"/>
      <point x="543" y="471.0"/>
      <point x="565" y="493"/>
      <point x="575" y="531" type="curve" smooth="yes"/>
      <point x="591" y="598"/>
      <point x="541" y="650.0"/>
      <point x="455" y="650" type="curve" smooth="yes"/>
      <point x="352" y="650.0"/>
      <point x="260" y="576"/>
      <point x="229" y="453" type="curve" smooth="yes"/>
      <point x="194" y="317"/>
      <point x="223" y="212"/>
      <point x="197" y="113" type="curve" smooth="yes"/>
      <point x="176" y="36"/>
      <point x="136" y="10"/>
      <point x="99" y="10" type="curve" smooth="yes"/>
      <point x="70" y="10"/>
      <point x="46" y="27"/>
      <point x="46" y="53" type="curve" smooth="yes"/>
      <point x="46" y="86"/>
      <point x="78" y="110"/>
    </contour>
  </outline>
</glyph>
<glyph name="won" format="2">
  <advance width="812"/>
  <unicode hex="20A9"/>
  <outline>
    <contour>
      <point x="533" y="523" type="line"/>
      <point x="272" y="66" type="line"/>
      <point x="293" y="72" type="line"/>
      <point x="294" y="229"/>
      <point x="296" y="456"/>
      <point x="296" y="557" type="curve" smooth="yes"/>
      <point x="296" y="597"/>
      <point x="313" y="609"/>
      <point x="369" y="619" type="curve" smooth="yes"/>
      <point x="377" y="621"/>
      <point x="380" y="624"/>
      <point x="380" y="628" type="curve" smooth="yes"/>
      <point x="380" y="633"/>
      <point x="376" y="636"/>
      <point x="367" y="636" type="curve" smooth="yes"/>
      <point x="190" y="636" type="line" smooth="yes"/>
      <point x="183" y="636"/>
      <point x="180" y="633"/>
      <point x="180" y="629" type="curve" smooth="yes"/>
      <point x="180" y="624"/>
      <point x="183" y="621"/>
      <point x="190" y="619" type="curve" smooth="yes"/>
      <point x="208" y="614"/>
      <point x="220" y="593"/>
      <point x="221" y="566" type="curve" smooth="yes"/>
      <point x="224" y="405"/>
      <point x="227" y="179"/>
      <point x="222" y="82" type="curve" smooth="yes"/>
      <point x="222" y="65"/>
      <point x="207" y="28"/>
      <point x="207" y="14" type="curve" smooth="yes"/>
      <point x="207" y="5"/>
      <point x="211" y="0"/>
      <point x="222" y="0" type="curve" smooth="yes"/>
      <point x="270" y="0" type="line" smooth="yes"/>
      <point x="279" y="0"/>
      <point x="284" y="6"/>
      <point x="288" y="18" type="curve" smooth="yes"/>
      <point x="298" y="59"/>
      <point x="304" y="77"/>
      <point x="316" y="96" type="curve" smooth="yes"/>
      <point x="547" y="498" type="line"/>
    </contour>
    <contour>
      <point x="804" y="630" type="curve" smooth="yes"/>
      <point x="804" y="626"/>
      <point x="807" y="623"/>
      <point x="819" y="619" type="curve" smooth="yes"/>
      <point x="849" y="609"/>
      <point x="862" y="592"/>
      <point x="862" y="573" type="curve" smooth="yes"/>
      <point x="862" y="562"/>
      <point x="857" y="550"/>
      <point x="848" y="534" type="curve" smooth="yes"/>
      <point x="578" y="57" type="line"/>
      <point x="602" y="71" type="line"/>
      <point x="598" y="190"/>
      <point x="603" y="443"/>
      <point x="603" y="546" type="curve" smooth="yes"/>
      <point x="603" y="596"/>
      <point x="620" y="610"/>
      <point x="673" y="618" type="curve" smooth="yes"/>
      <point x="684" y="620"/>
      <point x="688" y="624"/>
      <point x="688" y="629" type="curve" smooth="yes"/>
      <point x="688" y="633"/>
      <point x="685" y="636"/>
      <point x="676" y="636" type="curve" smooth="yes"/>
      <point x="499" y="636" type="line" smooth="yes"/>
      <point x="495" y="636"/>
      <point x="489" y="633"/>
      <point x="489" y="629" type="curve" smooth="yes"/>
      <point x="489" y="624"/>
      <point x="493" y="620"/>
      <point x="500" y="618" type="curve" smooth="yes"/>
      <point x="518" y="613"/>
      <point x="528" y="598"/>
      <point x="530" y="565" type="curve" smooth="yes"/>
      <point x="536" y="428"/>
      <point x="532" y="254"/>
      <point x="532" y="93" type="curve" smooth="yes"/>
      <point x="532" y="65"/>
      <point x="516" y="29"/>
      <point x="516" y="14" type="curve" smooth="yes"/>
      <point x="516" y="5"/>
      <point x="522" y="0"/>
      <point x="530" y="0" type="curve" smooth="yes"/>
      <point x="580" y="0" type="line" smooth="yes"/>
      <point x="589" y="0"/>
      <point x="594" y="5"/>
      <point x="597" y="15" type="curve" smooth="yes"/>
      <point x="610" y="58"/>
      <point x="617" y="82"/>
      <point x="625" y="95" type="curve" smooth="yes"/>
      <point x="881" y="539" type="line" smooth="yes"/>
      <point x="911" y="591"/>
      <point x="928" y="606"/>
      <point x="942" y="615" type="curve" smooth="yes"/>
      <point x="955" y="624"/>
      <point x="961" y="626"/>
      <point x="961" y="631" type="curve" smooth="yes"/>
      <point x="961" y="635"/>
      <point x="957" y="636"/>
      <point x="950" y="636" type="curve" smooth="yes"/>
      <point x="813" y="636" type="line" smooth="yes"/>
      <point x="808" y="636"/>
      <point x="804" y="633"/>
    </contour>
    <contour>
      <point x="165" y="415" type="curve" smooth="yes"/>
      <point x="143" y="415"/>
      <point x="130" y="402"/>
      <point x="127" y="388" type="curve" smooth="yes"/>
      <point x="123" y="374"/>
      <point x="130" y="361"/>
      <point x="152" y="361" type="curve" smooth="yes"/>
      <point x="190" y="361"/>
      <point x="272" y="377"/>
      <point x="471" y="379" type="curve"/>
      <point x="471" y="397" type="line"/>
      <point x="272" y="399"/>
      <point x="203" y="415"/>
    </contour>
    <contour>
      <point x="570" y="379" type="line"/>
      <point x="754" y="376"/>
      <point x="819" y="361"/>
      <point x="855" y="361" type="curve" smooth="yes"/>
      <point x="877" y="361"/>
      <point x="889" y="374"/>
      <point x="893" y="388" type="curve" smooth="yes"/>
      <point x="896" y="402"/>
      <point x="890" y="415"/>
      <point x="868" y="415" type="curve" smooth="yes"/>
      <point x="832" y="415"/>
      <point x="756" y="400"/>
      <point x="570" y="397" type="curve"/>
    </contour>
    <contour>
      <point x="554" y="242" type="line"/>
      <point x="726" y="239"/>
      <point x="789" y="225"/>
      <point x="824" y="225" type="curve" smooth="yes"/>
      <point x="846" y="225"/>
      <point x="858" y="238"/>
      <point x="862" y="252" type="curve" smooth="yes"/>
      <point x="865" y="266"/>
      <point x="859" y="279"/>
      <point x="837" y="279" type="curve" smooth="yes"/>
      <point x="802" y="279"/>
      <point x="729" y="265"/>
      <point x="554" y="262" type="curve"/>
    </contour>
    <contour>
      <point x="134" y="279" type="curve" smooth="yes"/>
      <point x="112" y="279"/>
      <point x="99" y="266"/>
      <point x="96" y="252" type="curve" smooth="yes"/>
      <point x="92" y="238"/>
      <point x="99" y="225"/>
      <point x="121" y="225" type="curve" smooth="yes"/>
      <point x="156" y="225"/>
      <point x="228" y="238"/>
      <point x="393" y="242" type="curve"/>
      <point x="393" y="262" type="line"/>
      <point x="230" y="266"/>
      <point x="169" y="279"/>
    </contour>
  </outline>
</glyph>
<glyph name="dong" format="2">
  <advance width="464"/>
  <unicode hex="20AB"/>
  <outline>
    <contour>
      <point x="447" y="446" type="line"/>
      <point x="442" y="454"/>
      <point x="421" y="460"/>
      <point x="389" y="460" type="curve" smooth="yes"/>
      <point x="250" y="460"/>
      <point x="93" y="306"/>
      <point x="93" y="174" type="curve" smooth="yes"/>
      <point x="93" y="123"/>
      <point x="120" y="102"/>
      <point x="162" y="102" type="curve" smooth="yes"/>
      <point x="224" y="102"/>
      <point x="302" y="156"/>
      <point x="372" y="307" type="curve"/>
      <point x="364" y="310" type="line"/>
      <point x="355" y="261"/>
      <point x="323" y="207"/>
      <point x="323" y="153" type="curve" smooth="yes"/>
      <point x="323" y="123"/>
      <point x="342" y="102"/>
      <point x="371" y="102" type="curve" smooth="yes"/>
      <point x="429" y="102"/>
      <point x="465" y="144"/>
      <point x="465" y="189" type="curve" smooth="yes"/>
      <point x="465" y="192"/>
      <point x="464" y="195"/>
      <point x="461" y="195" type="curve" smooth="yes"/>
      <point x="458" y="195"/>
      <point x="458" y="194"/>
      <point x="455" y="187" type="curve" smooth="yes"/>
      <point x="442" y="143"/>
      <point x="427" y="132"/>
      <point x="412" y="132" type="curve" smooth="yes"/>
      <point x="398" y="132"/>
      <point x="390" y="142"/>
      <point x="390" y="163" type="curve" smooth="yes"/>
      <point x="390" y="179"/>
      <point x="392" y="194"/>
      <point x="402" y="226" type="curve" smooth="yes"/>
      <point x="474" y="464" type="line" smooth="yes"/>
      <point x="489" y="515"/>
      <point x="472" y="539"/>
      <point x="473" y="577" type="curve" smooth="yes"/>
      <point x="473" y="595"/>
      <point x="481" y="605"/>
      <point x="496" y="605" type="curve" smooth="yes"/>
      <point x="519" y="605"/>
      <point x="538" y="587"/>
      <point x="566" y="587" type="curve" smooth="yes"/>
      <point x="592" y="587"/>
      <point x="610" y="600"/>
      <point x="610" y="620" type="curve" smooth="yes"/>
      <point x="610" y="639"/>
      <point x="594" y="652"/>
      <point x="567" y="652" type="curve" smooth="yes"/>
      <point x="496" y="652"/>
      <point x="460" y="620"/>
      <point x="429" y="520" type="curve" smooth="yes"/>
      <point x="407" y="449" type="line" smooth="yes"/>
      <point x="338" y="227"/>
      <point x="246" y="144"/>
      <point x="195" y="144" type="curve" smooth="yes"/>
      <point x="175" y="144"/>
      <point x="159" y="158"/>
      <point x="159" y="201" type="curve" smooth="yes"/>
      <point x="159" y="318"/>
      <point x="251" y="431"/>
      <point x="377" y="431" type="curve" smooth="yes"/>
      <point x="403" y="431"/>
      <point x="410" y="426"/>
      <point x="422" y="406" type="curve"/>
    </contour>
    <contour>
      <point x="91" y="52" type="curve" smooth="yes"/>
      <point x="75" y="52"/>
      <point x="65" y="39"/>
      <point x="62" y="26" type="curve" smooth="yes"/>
      <point x="60" y="13"/>
      <point x="65" y="0"/>
      <point x="81" y="0" type="curve" smooth="yes"/>
      <point x="100" y="0"/>
      <point x="140" y="18"/>
      <point x="242" y="18" type="curve" smooth="yes"/>
      <point x="345" y="18"/>
      <point x="377" y="0"/>
      <point x="395" y="0" type="curve" smooth="yes"/>
      <point x="411" y="0"/>
      <point x="420" y="13"/>
      <point x="423" y="26" type="curve" smooth="yes"/>
      <point x="425" y="39"/>
      <point x="421" y="52"/>
      <point x="404" y="52" type="curve" smooth="yes"/>
      <point x="387" y="52"/>
      <point x="347" y="34"/>
      <point x="245" y="34" type="curve" smooth="yes"/>
      <point x="142" y="34"/>
      <point x="109" y="52"/>
    </contour>
    <contour>
      <point x="365" y="539" type="curve" smooth="yes"/>
      <point x="349" y="539"/>
      <point x="339" y="530"/>
      <point x="336" y="520" type="curve" smooth="yes"/>
      <point x="334" y="510"/>
      <point x="339" y="501"/>
      <point x="355" y="501" type="curve" smooth="yes"/>
      <point x="366" y="501"/>
      <point x="389" y="512"/>
      <point x="447" y="512" type="curve" smooth="yes"/>
      <point x="513" y="512"/>
      <point x="522" y="501"/>
      <point x="532" y="501" type="curve" smooth="yes"/>
      <point x="548" y="501"/>
      <point x="557" y="510"/>
      <point x="560" y="520" type="curve" smooth="yes"/>
      <point x="562" y="530"/>
      <point x="558" y="539"/>
      <point x="541" y="539" type="curve" smooth="yes"/>
      <point x="531" y="539"/>
      <point x="519" y="528"/>
      <point x="450" y="528" type="curve" smooth="yes"/>
      <point x="393" y="528"/>
      <point x="375" y="539"/>
    </contour>
  </outline>
</glyph>
<glyph name="Euro" format="2">
  <advance width="590"/>
  <unicode hex="20AC"/>
  <outline>
    <contour>
      <point x="488" y="-10"/>
      <point x="582" y="69"/>
      <point x="620" y="173" type="curve" smooth="yes"/>
      <point x="622" y="178"/>
      <point x="620" y="181"/>
      <point x="617" y="181" type="curve" smooth="yes"/>
      <point x="614" y="181"/>
      <point x="611" y="179"/>
      <point x="608" y="174" type="curve" smooth="yes"/>
      <point x="560.1474193333631" y="87.45809879438004"/>
      <point x="493.0" y="44.0"/>
      <point x="421" y="44" type="curve" smooth="yes"/>
      <point x="328" y="44.0"/>
      <point x="269.0" y="127.0"/>
      <point x="269" y="268" type="curve" smooth="yes"/>
      <point x="269.0" y="464.6340782122905"/>
      <point x="388.0" y="629.0"/>
      <point x="525" y="629" type="curve" smooth="yes"/>
      <point x="608" y="629.0"/>
      <point x="654" y="576"/>
      <point x="627" y="467" type="curve" smooth="yes"/>
      <point x="626" y="463"/>
      <point x="627" y="458"/>
      <point x="631" y="458" type="curve" smooth="yes"/>
      <point x="635" y="458"/>
      <point x="638" y="460"/>
      <point x="641" y="467" type="curve" smooth="yes"/>
      <point x="712" y="637" type="line" smooth="yes"/>
      <point x="715" y="644"/>
      <point x="715" y="647"/>
      <point x="711" y="648" type="curve" smooth="yes"/>
      <point x="706" y="649"/>
      <point x="703" y="645"/>
      <point x="696" y="634" type="curve" smooth="yes"/>
      <point x="683" y="618"/>
      <point x="678" y="610"/>
      <point x="668" y="607" type="curve" smooth="yes"/>
      <point x="642.170985368678" y="598.7347153179769"/>
      <point x="618.2481751824818" y="650.0"/>
      <point x="526" y="650" type="curve" smooth="yes"/>
      <point x="350.66467065868267" y="650.0"/>
      <point x="197.0" y="452.0"/>
      <point x="197" y="219" type="curve" smooth="yes"/>
      <point x="197.0" y="84.0"/>
      <point x="266.2265193370166" y="-10.0"/>
      <point x="376" y="-10" type="curve" smooth="yes"/>
    </contour>
    <contour>
      <point x="137" y="284" type="curve" smooth="yes"/>
      <point x="115" y="284"/>
      <point x="101" y="271"/>
      <point x="98" y="258" type="curve" smooth="yes"/>
      <point x="95" y="245"/>
      <point x="102" y="232"/>
      <point x="124" y="232" type="curve" smooth="yes"/>
      <point x="147" y="232"/>
      <point x="194" y="250"/>
      <point x="316" y="250" type="curve" smooth="yes"/>
      <point x="439" y="250"/>
      <point x="480" y="232"/>
      <point x="500" y="232" type="curve" smooth="yes"/>
      <point x="522" y="232"/>
      <point x="534" y="245"/>
      <point x="537" y="258" type="curve" smooth="yes"/>
      <point x="540" y="271"/>
      <point x="535" y="284"/>
      <point x="513" y="284" type="curve" smooth="yes"/>
      <point x="493" y="284"/>
      <point x="443" y="266"/>
      <point x="320" y="266" type="curve" smooth="yes"/>
      <point x="198" y="266"/>
      <point x="160" y="284"/>
    </contour>
    <contour>
      <point x="164" y="394" type="curve" smooth="yes"/>
      <point x="142" y="394"/>
      <point x="129" y="381"/>
      <point x="125" y="368" type="curve" smooth="yes"/>
      <point x="122" y="355"/>
      <point x="129" y="342"/>
      <point x="151" y="342" type="curve" smooth="yes"/>
      <point x="174" y="342"/>
      <point x="221" y="360"/>
      <point x="343" y="360" type="curve" smooth="yes"/>
      <point x="466" y="360"/>
      <point x="507" y="342"/>
      <point x="527" y="342" type="curve" smooth="yes"/>
      <point x="549" y="342"/>
      <point x="561" y="355"/>
      <point x="564" y="368" type="curve" smooth="yes"/>
      <point x="568" y="381"/>
      <point x="562" y="394"/>
      <point x="540" y="394" type="curve" smooth="yes"/>
      <point x="520" y="394"/>
      <point x="470" y="376"/>
      <point x="347" y="376" type="curve" smooth="yes"/>
      <point x="225" y="376"/>
      <point x="187" y="394"/>
    </contour>
  </outline>
</glyph>
<glyph name="kip" format="2">
  <advance width="567"/>
  <unicode hex="20AD"/>
  <outline>
    <contour>
      <point x="144" y="349" type="curve" smooth="yes"/>
      <point x="121" y="349"/>
      <point x="107" y="336"/>
      <point x="104" y="323" type="curve" smooth="yes"/>
      <point x="100" y="310"/>
      <point x="107" y="297"/>
      <point x="131" y="297" type="curve" smooth="yes"/>
      <point x="147" y="297"/>
      <point x="177" y="305"/>
      <point x="238" y="311" type="curve"/>
      <point x="240" y="336" type="line"/>
      <point x="185" y="341"/>
      <point x="160" y="349"/>
    </contour>
    <contour>
      <point x="356" y="315" type="line"/>
      <point x="481" y="314"/>
      <point x="522" y="297"/>
      <point x="544" y="297" type="curve" smooth="yes"/>
      <point x="567" y="297"/>
      <point x="580" y="310"/>
      <point x="584" y="323" type="curve" smooth="yes"/>
      <point x="587" y="336"/>
      <point x="581" y="349"/>
      <point x="558" y="349" type="curve" smooth="yes"/>
      <point x="535" y="349"/>
      <point x="484" y="332"/>
      <point x="355" y="331" type="curve"/>
    </contour>
    <component base="K" xScale="0.909" yScale="0.909" xOffset="1"/>
    <component base="K" xScale="0.909" yScale="0.909" xOffset="1"/>
  </outline>
</glyph>
<glyph name="peso" format="2">
  <advance width="595"/>
  <unicode hex="20B1"/>
  <outline>
    <contour>
      <point x="176" y="390" type="curve" smooth="yes"/>
      <point x="150" y="390"/>
      <point x="134" y="377"/>
      <point x="131" y="364" type="curve" smooth="yes"/>
      <point x="126" y="351"/>
      <point x="134" y="338"/>
      <point x="160" y="338" type="curve" smooth="yes"/>
      <point x="187" y="338"/>
      <point x="246" y="356"/>
      <point x="399" y="356" type="curve" smooth="yes"/>
      <point x="550" y="356"/>
      <point x="598" y="338"/>
      <point x="624" y="338" type="curve" smooth="yes"/>
      <point x="650" y="338"/>
      <point x="664" y="351"/>
      <point x="669" y="364" type="curve" smooth="yes"/>
      <point x="672" y="377"/>
      <point x="665" y="390"/>
      <point x="639" y="390" type="curve" smooth="yes"/>
      <point x="613" y="390"/>
      <point x="554" y="372"/>
      <point x="403" y="372" type="curve" smooth="yes"/>
      <point x="251" y="372"/>
      <point x="203" y="390"/>
    </contour>
    <contour>
      <point x="202" y="500" type="curve" smooth="yes"/>
      <point x="176" y="500"/>
      <point x="160" y="487"/>
      <point x="157" y="474" type="curve" smooth="yes"/>
      <point x="152" y="461"/>
      <point x="160" y="448"/>
      <point x="186" y="448" type="curve" smooth="yes"/>
      <point x="213" y="448"/>
      <point x="272" y="466"/>
      <point x="425" y="466" type="curve" smooth="yes"/>
      <point x="576" y="466"/>
      <point x="624" y="448"/>
      <point x="650" y="448" type="curve" smooth="yes"/>
      <point x="676" y="448"/>
      <point x="690" y="461"/>
      <point x="695" y="474" type="curve" smooth="yes"/>
      <point x="698" y="487"/>
      <point x="691" y="500"/>
      <point x="665" y="500" type="curve" smooth="yes"/>
      <point x="639" y="500"/>
      <point x="580" y="482"/>
      <point x="429" y="482" type="curve" smooth="yes"/>
      <point x="277" y="482"/>
      <point x="229" y="500"/>
    </contour>
    <contour>
      <point x="495" y="215.0"/>
      <point x="621.0" y="316.0"/>
      <point x="621" y="457" type="curve" smooth="yes"/>
      <point x="621.0" y="569.0"/>
      <point x="554" y="636"/>
      <point x="447" y="636" type="curve" smooth="yes"/>
      <point x="221" y="636" type="line" smooth="yes"/>
      <point x="212" y="636.0"/>
      <point x="208" y="633"/>
      <point x="208" y="629" type="curve" smooth="yes"/>
      <point x="208" y="625"/>
      <point x="211" y="623"/>
      <point x="217" y="621" type="curve" smooth="yes"/>
      <point x="255" y="607" type="line" smooth="yes"/>
      <point x="271" y="601"/>
      <point x="277" y="594"/>
      <point x="274" y="581" type="curve" smooth="yes"/>
      <point x="236" y="404"/>
      <point x="192" y="242"/>
      <point x="142" y="67" type="curve" smooth="yes"/>
      <point x="136" y="45"/>
      <point x="126" y="34"/>
      <point x="108" y="29" type="curve" smooth="yes"/>
      <point x="65" y="18" type="line" smooth="yes"/>
      <point x="54" y="15"/>
      <point x="48.0" y="11"/>
      <point x="48" y="7" type="curve" smooth="yes"/>
      <point x="48.0" y="3"/>
      <point x="51" y="0"/>
      <point x="59" y="0" type="curve" smooth="yes"/>
      <point x="282" y="0" type="line" smooth="yes"/>
      <point x="292.0" y="0.0"/>
      <point x="295.0" y="4.0"/>
      <point x="295" y="7" type="curve" smooth="yes"/>
      <point x="295.0" y="12.0"/>
      <point x="292" y="13"/>
      <point x="286" y="15" type="curve" smooth="yes"/>
      <point x="236" y="29" type="line" smooth="yes"/>
      <point x="218" y="34"/>
      <point x="213" y="47"/>
      <point x="218" y="67" type="curve" smooth="yes"/>
      <point x="256" y="222"/>
      <point x="302" y="406"/>
      <point x="340" y="544" type="curve" smooth="yes"/>
      <point x="353" y="591"/>
      <point x="389" y="614.0"/>
      <point x="440" y="614" type="curve" smooth="yes"/>
      <point x="503" y="614.0"/>
      <point x="545.0" y="564.0"/>
      <point x="545" y="462" type="curve" smooth="yes"/>
      <point x="545.0" y="319.0"/>
      <point x="452" y="239.0"/>
      <point x="347" y="239" type="curve" smooth="yes"/>
      <point x="290" y="239"/>
      <point x="252" y="256"/>
      <point x="223" y="283" type="curve"/>
      <point x="214" y="262" type="line"/>
      <point x="249" y="233"/>
      <point x="297" y="215"/>
      <point x="367" y="215" type="curve" smooth="yes"/>
    </contour>
  </outline>
</glyph>
<glyph name="turkishlira" format="2">
  <advance width="529"/>
  <unicode hex="20BA"/>
  <outline>
    <contour>
      <point x="307" y="0" type="line" smooth="yes"/>
      <point x="443" y="0"/>
      <point x="557" y="123"/>
      <point x="557" y="246" type="curve" smooth="yes"/>
      <point x="557" y="278"/>
      <point x="541" y="298"/>
      <point x="513" y="298" type="curve" smooth="yes"/>
      <point x="477" y="298"/>
      <point x="453" y="262"/>
      <point x="461" y="222" type="curve" smooth="yes"/>
      <point x="465" y="203" type="line" smooth="yes"/>
      <point x="487" y="100"/>
      <point x="423" y="21"/>
      <point x="301" y="21" type="curve" smooth="yes"/>
      <point x="280" y="21" type="line" smooth="yes"/>
      <point x="245" y="21"/>
      <point x="231" y="32"/>
      <point x="236" y="59" type="curve" smooth="yes"/>
      <point x="244" y="104"/>
      <point x="310" y="369"/>
      <point x="367" y="570" type="curve" smooth="yes"/>
      <point x="374" y="591"/>
      <point x="381" y="602"/>
      <point x="401" y="607" type="curve" smooth="yes"/>
      <point x="457" y="620" type="line" smooth="yes"/>
      <point x="464" y="622"/>
      <point x="469" y="625"/>
      <point x="469" y="630" type="curve" smooth="yes"/>
      <point x="469" y="634"/>
      <point x="466" y="636"/>
      <point x="461" y="636" type="curve" smooth="yes"/>
      <point x="240" y="636" type="line" smooth="yes"/>
      <point x="230" y="636"/>
      <point x="227" y="633"/>
      <point x="227" y="629" type="curve" smooth="yes"/>
      <point x="227" y="626"/>
      <point x="230" y="623"/>
      <point x="236" y="621" type="curve" smooth="yes"/>
      <point x="274" y="607" type="line" smooth="yes"/>
      <point x="290" y="601"/>
      <point x="296" y="594"/>
      <point x="293" y="581" type="curve" smooth="yes"/>
      <point x="255" y="404"/>
      <point x="209" y="232"/>
      <point x="161" y="67" type="curve" smooth="yes"/>
      <point x="154" y="45"/>
      <point x="145" y="34"/>
      <point x="127" y="29" type="curve" smooth="yes"/>
      <point x="84" y="18" type="line" smooth="yes"/>
      <point x="73" y="15"/>
      <point x="67" y="12"/>
      <point x="67" y="8" type="curve" smooth="yes"/>
      <point x="67" y="3"/>
      <point x="70" y="0"/>
      <point x="78" y="0" type="curve" smooth="yes"/>
    </contour>
    <contour>
      <point x="140" y="303" type="curve" smooth="yes"/>
      <point x="119" y="297"/>
      <point x="111" y="282"/>
      <point x="111" y="269" type="curve" smooth="yes"/>
      <point x="112" y="257"/>
      <point x="124" y="247"/>
      <point x="144" y="253" type="curve" smooth="yes"/>
      <point x="165" y="261"/>
      <point x="206" y="291"/>
      <point x="325" y="329" type="curve" smooth="yes"/>
      <point x="444" y="366"/>
      <point x="490" y="363"/>
      <point x="509" y="369" type="curve" smooth="yes"/>
      <point x="529" y="376"/>
      <point x="537" y="391"/>
      <point x="536" y="403" type="curve" smooth="yes"/>
      <point x="535" y="415"/>
      <point x="525" y="425"/>
      <point x="505" y="419" type="curve" smooth="yes"/>
      <point x="485" y="413"/>
      <point x="442" y="382"/>
      <point x="324" y="344" type="curve" smooth="yes"/>
      <point x="205" y="306"/>
      <point x="161" y="309"/>
    </contour>
    <contour>
      <point x="164" y="418" type="curve" smooth="yes"/>
      <point x="145" y="412"/>
      <point x="136" y="396"/>
      <point x="137" y="385" type="curve" smooth="yes"/>
      <point x="138" y="372"/>
      <point x="149" y="363"/>
      <point x="169" y="369" type="curve" smooth="yes"/>
      <point x="191" y="376"/>
      <point x="231" y="406"/>
      <point x="351" y="444" type="curve" smooth="yes"/>
      <point x="469" y="482"/>
      <point x="516" y="479"/>
      <point x="535" y="485" type="curve" smooth="yes"/>
      <point x="556" y="491"/>
      <point x="562" y="506"/>
      <point x="561" y="518" type="curve" smooth="yes"/>
      <point x="561" y="531"/>
      <point x="551" y="540"/>
      <point x="531" y="534" type="curve" smooth="yes"/>
      <point x="512" y="527"/>
      <point x="468" y="497"/>
      <point x="350" y="459" type="curve" smooth="yes"/>
      <point x="230" y="421"/>
      <point x="186" y="425"/>
    </contour>
  </outline>
</glyph>
<glyph name="manat" format="2">
  <advance width="621"/>
  <unicode hex="20BC"/>
  <outline>
    <contour>
      <point x="301" y="443" type="line" smooth="yes"/>
      <point x="332" y="554"/>
      <point x="386" y="608"/>
      <point x="463" y="608" type="curve" smooth="yes"/>
      <point x="565" y="608"/>
      <point x="603" y="538"/>
      <point x="561" y="384" type="curve" smooth="yes"/>
      <point x="473" y="58" type="line" smooth="yes"/>
      <point x="468" y="39"/>
      <point x="455" y="27"/>
      <point x="408" y="18" type="curve" smooth="yes"/>
      <point x="393" y="15"/>
      <point x="390" y="11"/>
      <point x="390" y="6" type="curve" smooth="yes"/>
      <point x="390" y="2"/>
      <point x="393" y="0"/>
      <point x="401" y="0" type="curve" smooth="yes"/>
      <point x="596" y="0" type="line" smooth="yes"/>
      <point x="605" y="0"/>
      <point x="609" y="4"/>
      <point x="609" y="7" type="curve" smooth="yes"/>
      <point x="609" y="12"/>
      <point x="604" y="15"/>
      <point x="595" y="17" type="curve" smooth="yes"/>
      <point x="564" y="25" type="line" smooth="yes"/>
      <point x="544" y="30"/>
      <point x="540" y="43"/>
      <point x="546" y="65" type="curve" smooth="yes"/>
      <point x="639" y="401" type="line" smooth="yes"/>
      <point x="680" y="548"/>
      <point x="602" y="629"/>
      <point x="468" y="629" type="curve" smooth="yes"/>
      <point x="341" y="629"/>
      <point x="263" y="564"/>
      <point x="230" y="443" type="curve" smooth="yes"/>
      <point x="127" y="71" type="line" smooth="yes"/>
      <point x="119" y="41"/>
      <point x="112" y="29"/>
      <point x="54" y="17" type="curve" smooth="yes"/>
      <point x="44" y="15"/>
      <point x="40" y="11"/>
      <point x="40" y="7" type="curve" smooth="yes"/>
      <point x="40" y="3"/>
      <point x="43" y="0"/>
      <point x="51" y="0" type="curve" smooth="yes"/>
      <point x="246" y="0" type="line" smooth="yes"/>
      <point x="255" y="0"/>
      <point x="259" y="4"/>
      <point x="259" y="7" type="curve" smooth="yes"/>
      <point x="259" y="11"/>
      <point x="257" y="13"/>
      <point x="250" y="15" type="curve" smooth="yes"/>
      <point x="214" y="25" type="line" smooth="yes"/>
      <point x="194" y="31"/>
      <point x="190" y="45"/>
      <point x="197" y="71" type="curve" smooth="yes"/>
    </contour>
    <contour>
      <point x="326" y="154" type="curve" smooth="yes"/>
      <point x="317" y="123"/>
      <point x="332" y="110"/>
      <point x="350" y="110" type="curve" smooth="yes"/>
      <point x="369" y="110"/>
      <point x="385" y="122"/>
      <point x="393" y="147" type="curve" smooth="yes"/>
      <point x="401" y="176"/>
      <point x="385" y="212"/>
      <point x="433" y="391" type="curve" smooth="yes"/>
      <point x="488" y="594"/>
      <point x="519" y="628"/>
      <point x="529" y="663" type="curve" smooth="yes"/>
      <point x="537" y="691"/>
      <point x="521" y="704"/>
      <point x="506" y="704" type="curve" smooth="yes"/>
      <point x="488" y="704"/>
      <point x="471" y="692"/>
      <point x="464" y="665" type="curve" smooth="yes"/>
      <point x="455" y="634"/>
      <point x="472" y="597"/>
      <point x="416" y="391" type="curve" smooth="yes"/>
      <point x="369" y="216"/>
      <point x="333" y="183"/>
    </contour>
  </outline>
</glyph>
<glyph name="ruble" format="2">
  <advance width="511"/>
  <unicode hex="20BD"/>
  <outline>
    <contour>
      <point x="500" y="265"/>
      <point x="614.0" y="363.0"/>
      <point x="614" y="494" type="curve" smooth="yes"/>
      <point x="614.0" y="583.0"/>
      <point x="547" y="636"/>
      <point x="440" y="636" type="curve" smooth="yes"/>
      <point x="214" y="636" type="line" smooth="yes"/>
      <point x="205" y="636"/>
      <point x="201.0" y="633"/>
      <point x="201" y="629" type="curve" smooth="yes"/>
      <point x="201.0" y="625.0"/>
      <point x="204" y="623"/>
      <point x="210" y="621" type="curve" smooth="yes"/>
      <point x="248" y="607" type="line" smooth="yes"/>
      <point x="264" y="601"/>
      <point x="270" y="595"/>
      <point x="267" y="581" type="curve" smooth="yes"/>
      <point x="229" y="404"/>
      <point x="185" y="242"/>
      <point x="135" y="67" type="curve" smooth="yes"/>
      <point x="129" y="45"/>
      <point x="119" y="34"/>
      <point x="101" y="29" type="curve" smooth="yes"/>
      <point x="58" y="18" type="line" smooth="yes"/>
      <point x="46" y="15"/>
      <point x="41.0" y="11"/>
      <point x="41" y="7" type="curve" smooth="yes"/>
      <point x="41.0" y="3"/>
      <point x="44.0" y="0"/>
      <point x="52" y="0" type="curve" smooth="yes"/>
      <point x="275" y="0" type="line" smooth="yes"/>
      <point x="285.0" y="0.0"/>
      <point x="288.0" y="4.0"/>
      <point x="288" y="7" type="curve" smooth="yes"/>
      <point x="288.0" y="12.0"/>
      <point x="284" y="14"/>
      <point x="279" y="15" type="curve" smooth="yes"/>
      <point x="229" y="29" type="line" smooth="yes"/>
      <point x="211" y="34"/>
      <point x="206" y="47"/>
      <point x="211" y="67" type="curve" smooth="yes"/>
      <point x="249" y="222"/>
      <point x="295" y="406"/>
      <point x="333" y="544" type="curve" smooth="yes"/>
      <point x="346" y="591"/>
      <point x="382" y="614.0"/>
      <point x="433" y="614" type="curve" smooth="yes"/>
      <point x="496" y="614.0"/>
      <point x="538.0" y="577.0"/>
      <point x="538" y="504" type="curve" smooth="yes"/>
      <point x="538.0" y="374.0"/>
      <point x="445" y="281"/>
      <point x="340" y="281" type="curve" smooth="yes"/>
      <point x="241" y="281" type="line"/>
      <point x="238" y="265" type="line"/>
      <point x="350" y="265" type="line" smooth="yes"/>
    </contour>
    <contour>
      <point x="111" y="191" type="curve" smooth="yes"/>
      <point x="91" y="191"/>
      <point x="80" y="178"/>
      <point x="77" y="165" type="curve" smooth="yes"/>
      <point x="74" y="152"/>
      <point x="81" y="139"/>
      <point x="100" y="139" type="curve" smooth="yes"/>
      <point x="121" y="139"/>
      <point x="165" y="157"/>
      <point x="279" y="157" type="curve" smooth="yes"/>
      <point x="392" y="157"/>
      <point x="427" y="139"/>
      <point x="447" y="139" type="curve" smooth="yes"/>
      <point x="466" y="139"/>
      <point x="477" y="152"/>
      <point x="481" y="165" type="curve" smooth="yes"/>
      <point x="483" y="178"/>
      <point x="479" y="191"/>
      <point x="458" y="191" type="curve" smooth="yes"/>
      <point x="439" y="191"/>
      <point x="396" y="173"/>
      <point x="282" y="173" type="curve" smooth="yes"/>
      <point x="169" y="173"/>
      <point x="131" y="191"/>
    </contour>
    <contour>
      <point x="137" y="299" type="curve" smooth="yes"/>
      <point x="117" y="299"/>
      <point x="106" y="286"/>
      <point x="103" y="273" type="curve" smooth="yes"/>
      <point x="100" y="260"/>
      <point x="107" y="247"/>
      <point x="126" y="247" type="curve" smooth="yes"/>
      <point x="147" y="247"/>
      <point x="191" y="265"/>
      <point x="305" y="265" type="curve"/>
      <point x="305" y="281" type="line"/>
      <point x="194" y="281"/>
      <point x="157" y="299"/>
    </contour>
  </outline>
</glyph>
<glyph name="numero" format="2">
  <advance width="908"/>
  <unicode hex="2116"/>
  <outline>
    <contour>
      <point x="574" y="80" type="curve" smooth="yes"/>
      <point x="572" y="74"/>
      <point x="575.0" y="70.0"/>
      <point x="584" y="70" type="curve" smooth="yes"/>
      <point x="873" y="70" type="line" smooth="yes"/>
      <point x="881" y="70"/>
      <point x="887" y="74"/>
      <point x="889" y="80" type="curve" smooth="yes"/>
      <point x="891" y="87"/>
      <point x="887" y="91"/>
      <point x="877" y="91" type="curve" smooth="yes"/>
      <point x="589" y="91" type="line" smooth="yes"/>
      <point x="582.0" y="91.0"/>
      <point x="576" y="87"/>
    </contour>
    <contour>
      <point x="851" y="560" type="curve" smooth="yes"/>
      <point x="741" y="560.0"/>
      <point x="647" y="476"/>
      <point x="619" y="372" type="curve" smooth="yes"/>
      <point x="586" y="248"/>
      <point x="643" y="154.0"/>
      <point x="742" y="154" type="curve" smooth="yes"/>
      <point x="845" y="154.0"/>
      <point x="948" y="235"/>
      <point x="979" y="352" type="curve" smooth="yes"/>
      <point x="1011" y="471"/>
      <point x="951" y="560.0"/>
    </contour>
    <contour>
      <point x="899" y="536"/>
      <point x="933" y="440"/>
      <point x="903" y="326" type="curve" smooth="yes"/>
      <point x="875" y="220"/>
      <point x="814" y="179.0"/>
      <point x="760" y="179" type="curve" smooth="yes"/>
      <point x="699" y="179"/>
      <point x="662" y="274"/>
      <point x="692" y="388" type="curve" smooth="yes"/>
      <point x="718" y="487"/>
      <point x="777.0" y="536.0"/>
      <point x="837" y="536" type="curve" smooth="yes"/>
    </contour>
    <contour>
      <point x="157" y="90" type="line" smooth="yes"/>
      <point x="151" y="67"/>
      <point x="155" y="46"/>
      <point x="170" y="39" type="curve" smooth="yes"/>
      <point x="210" y="21" type="line" smooth="yes"/>
      <point x="221" y="16"/>
      <point x="226.0" y="14"/>
      <point x="226" y="9" type="curve" smooth="yes"/>
      <point x="226.0" y="3"/>
      <point x="220" y="0"/>
      <point x="209" y="0" type="curve" smooth="yes"/>
      <point x="30" y="0" type="line" smooth="yes"/>
      <point x="21.875" y="0"/>
      <point x="17.0" y="3.2727272727272725"/>
      <point x="17" y="9" type="curve" smooth="yes"/>
      <point x="17.0" y="14.0"/>
      <point x="20.833558562671662" y="16.94451952089055"/>
      <point x="27" y="19" type="curve" smooth="yes"/>
      <point x="81" y="37" type="line" smooth="yes"/>
      <point x="106" y="45"/>
      <point x="127" y="62"/>
      <point x="135" y="90" type="curve" smooth="yes"/>
      <point x="247" y="505" type="line" smooth="yes"/>
      <point x="252" y="522"/>
      <point x="252" y="530"/>
      <point x="248" y="539" type="curve" smooth="yes"/>
      <point x="217" y="616" type="line" smooth="yes"/>
      <point x="215" y="620"/>
      <point x="214.0" y="625"/>
      <point x="214" y="629" type="curve" smooth="yes"/>
      <point x="214.6722293867643" y="633.0333763205858"/>
      <point x="219.0" y="635"/>
      <point x="224" y="635" type="curve" smooth="yes"/>
      <point x="274" y="635" type="line" smooth="yes"/>
      <point x="289" y="635"/>
      <point x="297" y="628"/>
      <point x="303" y="609" type="curve" smooth="yes"/>
      <point x="366" y="401"/>
      <point x="421" y="236"/>
      <point x="462" y="104" type="curve"/>
      <point x="453" y="116" type="line"/>
      <point x="552" y="506" type="line" smooth="yes"/>
      <point x="579" y="614"/>
      <point x="612" y="651.0"/>
      <point x="662" y="651" type="curve" smooth="yes"/>
      <point x="685" y="651.0"/>
      <point x="695" y="641"/>
      <point x="695" y="622" type="curve" smooth="yes"/>
      <point x="695" y="568"/>
      <point x="588" y="565"/>
      <point x="568" y="484" type="curve" smooth="yes"/>
      <point x="472" y="100" type="line" smooth="yes"/>
      <point x="468" y="86"/>
      <point x="468.0" y="80"/>
      <point x="468" y="74" type="curve" smooth="yes"/>
      <point x="468.0" y="60.0"/>
      <point x="486.0" y="22.0"/>
      <point x="486" y="12" type="curve" smooth="yes"/>
      <point x="486" y="4"/>
      <point x="479" y="0"/>
      <point x="474" y="0" type="curve" smooth="yes"/>
      <point x="421" y="0" type="line" smooth="yes"/>
      <point x="410" y="0"/>
      <point x="406" y="6"/>
      <point x="408" y="17" type="curve" smooth="yes"/>
      <point x="410" y="29"/>
      <point x="410" y="38"/>
      <point x="408" y="46" type="curve" smooth="yes"/>
      <point x="371" y="172"/>
      <point x="320" y="335"/>
      <point x="266" y="508" type="curve"/>
      <point x="274" y="509" type="line"/>
    </contour>
  </outline>
</glyph>
<glyph name="dotaccentcomb" format="2">
  <outline>
    <contour>
      <point x="267" y="520" type="curve" smooth="yes"/>
      <point x="293.0" y="520.0"/>
      <point x="330.0" y="569.0"/>
      <point x="330" y="618" type="curve" smooth="yes"/>
      <point x="330" y="641"/>
      <point x="320" y="657"/>
      <point x="299" y="657" type="curve" smooth="yes"/>
      <point x="272.0" y="657.0"/>
      <point x="236" y="599"/>
      <point x="236" y="559" type="curve" smooth="yes"/>
      <point x="236" y="537"/>
      <point x="246" y="520"/>
    </contour>
  </outline>
</glyph>
